<svg xmlns="http://www.w3.org/2000/svg" xmlns:xlink="http://www.w3.org/1999/xlink" width="150" zoomAndPan="magnify" viewBox="0 0 112.5 112.499997" height="150" preserveAspectRatio="xMidYMid meet" version="1.0"><defs><g/><clipPath id="9a5fbc09ed"><path d="M 29.585938 6.890625 L 82.835938 6.890625 L 82.835938 60.140625 L 29.585938 60.140625 Z M 29.585938 6.890625 " clip-rule="nonzero"/></clipPath></defs><g clip-path="url(#9a5fbc09ed)"><path fill="#0d6efd" d="M 56.210938 6.890625 C 41.507812 6.890625 29.585938 18.8125 29.585938 33.515625 C 29.585938 48.222656 41.507812 60.140625 56.210938 60.140625 C 70.914062 60.140625 82.835938 48.222656 82.835938 33.515625 C 82.835938 18.8125 70.914062 6.890625 56.210938 6.890625 Z M 56.210938 57.0625 C 43.199219 57.0625 32.667969 46.53125 32.667969 33.515625 C 32.667969 20.503906 43.199219 9.972656 56.210938 9.972656 C 69.226562 9.972656 79.757812 20.503906 79.757812 33.515625 C 79.757812 46.53125 69.226562 57.0625 56.210938 57.0625 Z M 56.210938 57.0625 " fill-opacity="1" fill-rule="nonzero"/></g><path fill="#0d6efd" d="M 72.824219 23.875 L 62.105469 33.175781 L 62.667969 33.753906 L 63.089844 34.183594 L 63.089844 34.1875 L 72.421875 43.789062 C 72.464844 43.832031 72.496094 43.882812 72.519531 43.9375 C 72.738281 43.621094 72.867188 43.230469 72.867188 42.808594 L 72.867188 23.828125 C 72.851562 23.84375 72.839844 23.859375 72.824219 23.875 Z M 72.824219 23.875 " fill-opacity="1" fill-rule="nonzero"/><path fill="#0d6efd" d="M 72.386719 22.539062 C 72.355469 22.457031 72.265625 22.261719 72.066406 22.261719 C 72.066406 22.261719 40.359375 22.261719 40.359375 22.261719 C 40.15625 22.261719 40.066406 22.457031 40.039062 22.539062 C 39.964844 22.742188 39.980469 23.015625 40.171875 23.183594 L 54.730469 35.8125 C 55.601562 36.570312 56.820312 36.570312 57.691406 35.8125 L 72.253906 23.183594 C 72.445312 23.015625 72.457031 22.742188 72.386719 22.539062 Z M 72.386719 22.539062 " fill-opacity="1" fill-rule="nonzero"/><path fill="#0d6efd" d="M 39.601562 23.875 C 39.585938 23.859375 39.570312 23.84375 39.554688 23.828125 L 39.554688 42.808594 C 39.554688 43.113281 39.625 43.398438 39.746094 43.65625 L 50.671875 33.480469 Z M 39.601562 23.875 " fill-opacity="1" fill-rule="nonzero"/><path fill="#0d6efd" d="M 62.039062 34.394531 L 61.425781 33.761719 L 58.261719 36.503906 C 57.660156 37.027344 56.9375 37.292969 56.210938 37.292969 C 55.488281 37.292969 54.765625 37.03125 54.160156 36.503906 L 51.355469 34.070312 L 40.300781 44.363281 C 40.625 44.617188 41.03125 44.773438 41.46875 44.773438 L 70.957031 44.773438 C 71.304688 44.773438 71.632812 44.675781 71.914062 44.507812 C 71.871094 44.488281 71.832031 44.464844 71.796875 44.429688 Z M 62.039062 34.394531 " fill-opacity="1" fill-rule="nonzero"/></svg>