<svg xmlns="http://www.w3.org/2000/svg" xmlns:xlink="http://www.w3.org/1999/xlink" width="150" zoomAndPan="magnify" viewBox="0 0 112.5 112.499997" height="150" preserveAspectRatio="xMidYMid meet" version="1.0"><defs><g/><clipPath id="a1c099ad28"><path d="M 51 52 L 61 52 L 61 62.191406 L 51 62.191406 Z M 51 52 " clip-rule="nonzero"/></clipPath><clipPath id="b6da27ad81"><path d="M 28.847656 7.441406 L 83.597656 7.441406 L 83.597656 38 L 28.847656 38 Z M 28.847656 7.441406 " clip-rule="nonzero"/></clipPath></defs><path fill="#0d6efd" d="M 43.757812 26.433594 C 43.148438 26.433594 42.652344 26.933594 42.652344 27.542969 L 42.652344 31.628906 C 42.652344 32.242188 43.148438 32.742188 43.757812 32.742188 L 68.65625 32.742188 C 69.265625 32.742188 69.761719 32.242188 69.761719 31.628906 L 69.761719 27.542969 C 69.761719 26.933594 69.265625 26.433594 68.65625 26.433594 Z M 68.65625 33.945312 L 43.757812 33.945312 C 42.488281 33.945312 41.457031 32.90625 41.457031 31.628906 L 41.457031 27.542969 C 41.457031 26.269531 42.488281 25.230469 43.757812 25.230469 L 68.65625 25.230469 C 69.921875 25.230469 70.957031 26.269531 70.957031 27.542969 L 70.957031 31.628906 C 70.957031 32.90625 69.921875 33.945312 68.65625 33.945312 Z M 68.65625 33.945312 " fill-opacity="1" fill-rule="evenodd"/><path fill="#0d6efd" d="M 43.757812 41.453125 C 42.488281 41.453125 41.457031 40.414062 41.457031 39.140625 L 41.457031 35.054688 C 41.457031 33.777344 42.488281 32.742188 43.757812 32.742188 L 43.757812 33.945312 C 43.148438 33.945312 42.652344 34.441406 42.652344 35.054688 L 42.652344 39.140625 C 42.652344 39.753906 43.148438 40.25 43.757812 40.25 Z M 68.65625 41.453125 L 68.65625 40.25 C 69.265625 40.25 69.761719 39.753906 69.761719 39.140625 L 69.761719 35.054688 C 69.761719 34.441406 69.265625 33.945312 68.65625 33.945312 L 68.65625 32.742188 C 69.921875 32.742188 70.957031 33.777344 70.957031 35.054688 L 70.957031 39.140625 C 70.957031 40.414062 69.921875 41.453125 68.65625 41.453125 Z M 68.65625 41.453125 " fill-opacity="1" fill-rule="evenodd"/><path fill="#0d6efd" d="M 43.757812 41.453125 C 43.148438 41.453125 42.652344 41.953125 42.652344 42.566406 L 42.652344 46.648438 C 42.652344 47.261719 43.148438 47.761719 43.757812 47.761719 L 68.65625 47.761719 C 69.265625 47.761719 69.761719 47.261719 69.761719 46.648438 L 69.761719 42.566406 C 69.761719 41.953125 69.265625 41.453125 68.65625 41.453125 Z M 68.65625 48.964844 L 43.757812 48.964844 C 42.488281 48.964844 41.457031 47.925781 41.457031 46.648438 L 41.457031 42.566406 C 41.457031 41.289062 42.488281 40.25 43.757812 40.25 L 68.65625 40.25 C 69.921875 40.25 70.957031 41.289062 70.957031 42.566406 L 70.957031 46.648438 C 70.957031 47.925781 69.921875 48.964844 68.65625 48.964844 Z M 68.65625 48.964844 " fill-opacity="1" fill-rule="evenodd"/><path fill="#0d6efd" d="M 46.09375 28.386719 C 45.4375 28.386719 44.902344 28.925781 44.902344 29.585938 C 44.902344 30.25 45.4375 30.789062 46.09375 30.789062 C 46.753906 30.789062 47.289062 30.25 47.289062 29.585938 C 47.289062 28.925781 46.753906 28.386719 46.09375 28.386719 Z M 46.09375 31.988281 C 44.777344 31.988281 43.707031 30.910156 43.707031 29.585938 C 43.707031 28.261719 44.777344 27.183594 46.09375 27.183594 C 47.410156 27.183594 48.484375 28.261719 48.484375 29.585938 C 48.484375 30.910156 47.410156 31.988281 46.09375 31.988281 Z M 46.09375 31.988281 " fill-opacity="1" fill-rule="evenodd"/><path fill="#0d6efd" d="M 58.019531 28.984375 L 68.105469 28.984375 L 68.105469 30.1875 L 58.019531 30.1875 Z M 58.019531 28.984375 " fill-opacity="1" fill-rule="evenodd"/><path fill="#0d6efd" d="M 46.09375 35.898438 C 45.4375 35.898438 44.902344 36.4375 44.902344 37.097656 C 44.902344 37.757812 45.4375 38.296875 46.09375 38.296875 C 46.753906 38.296875 47.289062 37.757812 47.289062 37.097656 C 47.289062 36.4375 46.753906 35.898438 46.09375 35.898438 Z M 46.09375 39.5 C 44.777344 39.5 43.707031 38.421875 43.707031 37.097656 C 43.707031 35.773438 44.777344 34.695312 46.09375 34.695312 C 47.410156 34.695312 48.484375 35.773438 48.484375 37.097656 C 48.484375 38.421875 47.410156 39.5 46.09375 39.5 Z M 46.09375 39.5 " fill-opacity="1" fill-rule="evenodd"/><path fill="#0d6efd" d="M 58.019531 36.496094 L 68.105469 36.496094 L 68.105469 37.699219 L 58.019531 37.699219 Z M 58.019531 36.496094 " fill-opacity="1" fill-rule="evenodd"/><path fill="#0d6efd" d="M 46.09375 43.40625 C 45.4375 43.40625 44.902344 43.945312 44.902344 44.609375 C 44.902344 45.269531 45.4375 45.808594 46.09375 45.808594 C 46.753906 45.808594 47.289062 45.269531 47.289062 44.609375 C 47.289062 43.945312 46.753906 43.40625 46.09375 43.40625 Z M 46.09375 47.011719 C 44.777344 47.011719 43.707031 45.933594 43.707031 44.609375 C 43.707031 43.28125 44.777344 42.203125 46.09375 42.203125 C 47.410156 42.203125 48.484375 43.28125 48.484375 44.609375 C 48.484375 45.933594 47.410156 47.011719 46.09375 47.011719 Z M 46.09375 47.011719 " fill-opacity="1" fill-rule="evenodd"/><path fill="#0d6efd" d="M 58.019531 44.007812 L 68.105469 44.007812 L 68.105469 45.207031 L 58.019531 45.207031 Z M 58.019531 44.007812 " fill-opacity="1" fill-rule="evenodd"/><g clip-path="url(#a1c099ad28)"><path fill="#0d6efd" d="M 56.207031 54.183594 C 54.371094 54.183594 52.878906 55.6875 52.878906 57.535156 C 52.878906 59.378906 54.371094 60.882812 56.207031 60.882812 C 58.039062 60.882812 59.535156 59.378906 59.535156 57.535156 C 59.535156 55.6875 58.039062 54.1875 56.207031 54.183594 Z M 56.207031 62.085938 C 53.710938 62.085938 51.683594 60.042969 51.683594 57.535156 C 51.683594 55.023438 53.710938 52.984375 56.207031 52.984375 C 58.699219 52.984375 60.730469 55.023438 60.730469 57.535156 C 60.730469 60.042969 58.699219 62.085938 56.207031 62.085938 Z M 56.207031 62.085938 " fill-opacity="1" fill-rule="evenodd"/></g><path fill="#0d6efd" d="M 56.207031 54.183594 C 55.875 54.183594 55.609375 53.917969 55.609375 53.585938 L 55.609375 48.363281 C 55.609375 48.03125 55.875 47.761719 56.207031 47.761719 C 56.535156 47.761719 56.804688 48.03125 56.804688 48.363281 L 56.804688 53.582031 C 56.804688 53.914062 56.535156 54.183594 56.207031 54.183594 Z M 56.207031 54.183594 " fill-opacity="1" fill-rule="evenodd"/><path fill="#0d6efd" d="M 52.28125 58.136719 L 44.289062 58.136719 C 43.957031 58.136719 43.691406 57.867188 43.691406 57.535156 C 43.691406 57.203125 43.957031 56.933594 44.289062 56.933594 L 52.28125 56.933594 C 52.609375 56.933594 52.878906 57.203125 52.878906 57.535156 C 52.878906 57.867188 52.609375 58.136719 52.28125 58.136719 Z M 68.125 58.136719 L 60.132812 58.136719 C 59.800781 58.136719 59.535156 57.867188 59.535156 57.535156 C 59.535156 57.203125 59.800781 56.933594 60.132812 56.933594 L 68.125 56.933594 C 68.453125 56.933594 68.722656 57.203125 68.722656 57.535156 C 68.722656 57.867188 68.453125 58.136719 68.125 58.136719 Z M 68.125 58.136719 " fill-opacity="1" fill-rule="evenodd"/><g clip-path="url(#b6da27ad81)"><path fill="#0d6efd" d="M 74.035156 37.820312 L 70.355469 37.820312 C 70.023438 37.820312 69.757812 37.550781 69.757812 37.21875 C 69.757812 36.886719 70.023438 36.617188 70.355469 36.617188 L 74.035156 36.617188 C 78.636719 36.617188 82.382812 32.851562 82.382812 28.21875 C 82.382812 23.585938 78.636719 19.820312 74.035156 19.820312 C 73.417969 19.820312 72.800781 19.886719 72.203125 20.023438 C 72.023438 20.0625 71.832031 20.015625 71.691406 19.898438 C 71.546875 19.78125 71.46875 19.601562 71.472656 19.414062 C 71.476562 19.304688 71.480469 19.191406 71.480469 19.078125 C 71.480469 13.363281 66.859375 8.710938 61.179688 8.710938 C 56.972656 8.710938 53.230469 11.242188 51.636719 15.160156 C 51.523438 15.4375 51.226562 15.589844 50.933594 15.511719 C 50.265625 15.339844 49.578125 15.25 48.882812 15.25 C 44.753906 15.25 41.277344 18.355469 40.800781 22.476562 C 40.78125 22.648438 40.691406 22.800781 40.550781 22.898438 C 40.414062 22.996094 40.25 23.027344 40.089844 22.996094 C 39.964844 23.027344 39.824219 23.023438 39.703125 22.972656 C 38.863281 22.632812 37.976562 22.460938 37.066406 22.460938 C 33.1875 22.460938 30.03125 25.636719 30.03125 29.539062 C 30.03125 33.441406 33.1875 36.617188 37.066406 36.617188 L 42.0625 36.617188 C 42.390625 36.617188 42.660156 36.886719 42.660156 37.21875 C 42.660156 37.550781 42.390625 37.820312 42.0625 37.820312 L 37.066406 37.820312 C 32.527344 37.820312 28.835938 34.105469 28.835938 29.539062 C 28.835938 24.972656 32.527344 21.257812 37.066406 21.257812 C 37.972656 21.257812 38.859375 21.402344 39.710938 21.695312 C 40.53125 17.292969 44.363281 14.046875 48.882812 14.046875 C 49.503906 14.046875 50.128906 14.109375 50.734375 14.234375 C 52.613281 10.132812 56.65625 7.507812 61.179688 7.507812 C 67.398438 7.507812 72.480469 12.503906 72.671875 18.714844 C 73.121094 18.648438 73.578125 18.617188 74.035156 18.617188 C 79.296875 18.617188 83.578125 22.925781 83.578125 28.21875 C 83.578125 33.511719 79.296875 37.820312 74.035156 37.820312 Z M 74.035156 37.820312 " fill-opacity="1" fill-rule="evenodd"/></g></svg>