<svg xmlns="http://www.w3.org/2000/svg" xmlns:xlink="http://www.w3.org/1999/xlink" width="500" zoomAndPan="magnify" viewBox="0 0 375 299.999988" height="400" preserveAspectRatio="xMidYMid meet" version="1.0"><defs><clipPath id="d34e4b90ed"><path d="M 11.261719 33 L 246 33 L 246 267.550781 L 11.261719 267.550781 Z M 11.261719 33 " clip-rule="nonzero"/></clipPath><clipPath id="cd15f73a30"><path d="M 162 33 L 363.761719 33 L 363.761719 259 L 162 259 Z M 162 33 " clip-rule="nonzero"/></clipPath></defs><rect x="-37.5" width="450" fill="#ffffff" y="-29.999999" height="359.999986" fill-opacity="1"/><rect x="-37.5" width="450" fill="#ffffff" y="-29.999999" height="359.999986" fill-opacity="1"/><rect x="-37.5" width="450" fill="#218fcf" y="-29.999999" height="359.999986" fill-opacity="1"/><g clip-path="url(#d34e4b90ed)"><path fill="#ffffff" d="M 140.539062 215.210938 L 96.6875 215.210938 L 128.199219 149.503906 L 175.628906 244.824219 C 182.019531 256.738281 196.957031 265.257812 212.820312 266.949219 L 212.820312 267.269531 C 213.585938 267.269531 214.320312 267.191406 215.070312 267.148438 C 216.222656 267.230469 217.363281 267.269531 218.515625 267.269531 L 245.148438 267.269531 L 240.957031 258.882812 L 212.820312 202.53125 L 154.191406 85.101562 L 141.53125 59.742188 L 128.199219 33.042969 L 11.261719 267.257812 L 88.566406 267.257812 C 117.160156 267.257812 140.539062 243.84375 140.539062 215.210938 Z M 140.539062 215.210938 " fill-opacity="1" fill-rule="nonzero"/></g><g clip-path="url(#cd15f73a30)"><path fill="#ffffff" d="M 207.890625 33.042969 C 188.488281 33.042969 171.515625 43.84375 162.578125 59.730469 L 175.238281 85.089844 L 233.867188 85.089844 L 233.867188 202.519531 L 262.003906 258.871094 C 276.3125 249.574219 285.839844 233.472656 285.839844 215.210938 L 285.839844 85.089844 L 311.832031 85.089844 C 340.421875 85.089844 363.800781 61.664062 363.800781 33.042969 Z M 207.890625 33.042969 " fill-opacity="1" fill-rule="nonzero"/></g></svg>