<svg xmlns="http://www.w3.org/2000/svg" xmlns:xlink="http://www.w3.org/1999/xlink" width="150" zoomAndPan="magnify" viewBox="0 0 112.5 112.499997" height="150" preserveAspectRatio="xMidYMid meet" version="1.0"><defs><g/><clipPath id="17b199e8ef"><path d="M 28.972656 18 L 71 18 L 71 60.753906 L 28.972656 60.753906 Z M 28.972656 18 " clip-rule="nonzero"/></clipPath><clipPath id="a3e337563f"><path d="M 60 6.003906 L 83.722656 6.003906 L 83.722656 42 L 60 42 Z M 60 6.003906 " clip-rule="nonzero"/></clipPath></defs><g clip-path="url(#17b199e8ef)"><path fill="#ffffff" d="M 49.933594 60.753906 C 56.132812 60.753906 61.695312 58.058594 65.542969 53.78125 C 65.628906 53.738281 65.671875 53.652344 65.714844 53.566406 C 68.238281 50.660156 69.992188 47.066406 70.632812 43.128906 C 70.421875 42.960938 70.207031 42.789062 70.078125 42.53125 C 69.90625 42.316406 69.609375 41.804688 69.136719 41.121094 C 68.839844 45.226562 67.253906 48.992188 64.773438 52.027344 C 63.363281 51.257812 61.78125 50.617188 60.027344 50.101562 C 60.882812 47.324219 61.394531 44.113281 61.480469 40.648438 L 68.839844 40.648438 C 68.496094 40.136719 68.152344 39.582031 67.769531 38.9375 L 61.480469 38.9375 C 61.394531 35.558594 60.925781 32.4375 60.113281 29.65625 C 60.839844 29.441406 61.523438 29.1875 62.207031 28.929688 C 61.953125 28.417969 61.738281 27.902344 61.480469 27.390625 C 60.882812 27.648438 60.199219 27.859375 59.554688 28.03125 C 58.53125 25.25 57.160156 22.984375 55.535156 21.402344 C 57.074219 21.871094 58.574219 22.558594 59.941406 23.371094 C 59.683594 22.597656 59.472656 21.828125 59.300781 21.058594 C 56.476562 19.648438 53.3125 18.835938 49.933594 18.835938 C 38.382812 18.835938 28.972656 28.246094 28.972656 39.792969 C 28.972656 45.054688 30.941406 49.890625 34.148438 53.566406 C 34.191406 53.652344 34.277344 53.695312 34.320312 53.78125 C 38.167969 58.058594 43.730469 60.753906 49.933594 60.753906 Z M 30.726562 40.648438 L 38.425781 40.648438 C 38.511719 44.070312 39.023438 47.28125 39.878906 50.101562 C 38.167969 50.617188 36.542969 51.257812 35.132812 52.027344 C 32.523438 48.90625 30.898438 44.96875 30.726562 40.648438 Z M 35.003906 27.691406 C 36.414062 28.460938 38.042969 29.144531 39.796875 29.65625 C 38.941406 32.4375 38.46875 35.558594 38.382812 38.9375 L 30.683594 38.9375 C 30.898438 34.703125 32.480469 30.769531 35.003906 27.691406 Z M 49.078125 20.632812 L 49.078125 29.402344 C 46.640625 29.359375 44.242188 29.058594 42.019531 28.546875 C 43.6875 24.140625 46.210938 21.144531 49.078125 20.632812 Z M 49.078125 31.113281 L 49.078125 38.9375 L 40.09375 38.9375 C 40.179688 35.773438 40.652344 32.738281 41.464844 30.128906 C 43.859375 30.683594 46.425781 31.027344 49.078125 31.113281 Z M 42.0625 51.257812 C 44.242188 50.746094 46.640625 50.445312 49.078125 50.402344 L 49.078125 58.957031 C 46.253906 58.445312 43.730469 55.535156 42.0625 51.257812 Z M 50.789062 58.957031 L 50.789062 50.402344 C 53.226562 50.445312 55.578125 50.746094 57.800781 51.257812 C 56.132812 55.535156 53.609375 58.445312 50.789062 58.957031 Z M 49.078125 48.691406 C 46.46875 48.734375 43.902344 49.078125 41.507812 49.632812 C 40.691406 46.980469 40.179688 43.902344 40.09375 40.648438 L 49.078125 40.648438 Z M 36.289062 53.355469 C 37.527344 52.710938 38.898438 52.15625 40.394531 51.726562 C 41.421875 54.421875 42.746094 56.648438 44.371094 58.230469 C 41.25 57.289062 38.46875 55.578125 36.289062 53.355469 Z M 63.578125 53.355469 C 61.351562 55.578125 58.617188 57.289062 55.535156 58.230469 C 57.117188 56.648438 58.488281 54.421875 59.511719 51.726562 C 60.96875 52.15625 62.378906 52.710938 63.578125 53.355469 Z M 58.359375 49.632812 C 56.007812 49.078125 53.441406 48.734375 50.789062 48.691406 L 50.789062 40.648438 L 59.769531 40.648438 C 59.683594 43.902344 59.171875 46.980469 58.359375 49.632812 Z M 59.769531 38.9375 L 50.789062 38.9375 L 50.789062 31.070312 C 53.441406 31.027344 56.007812 30.683594 58.402344 30.128906 C 59.214844 32.738281 59.683594 35.773438 59.769531 38.9375 Z M 50.789062 29.359375 L 50.789062 20.632812 C 53.652344 21.144531 56.175781 24.140625 57.84375 28.503906 C 55.621094 29.015625 53.226562 29.316406 50.789062 29.359375 Z M 44.328125 21.359375 C 42.703125 22.941406 41.335938 25.25 40.308594 28.03125 C 38.8125 27.5625 37.398438 27.003906 36.160156 26.363281 C 38.382812 24.097656 41.207031 22.34375 44.328125 21.359375 Z M 44.328125 21.359375 " fill-opacity="1" fill-rule="nonzero"/></g><g clip-path="url(#a3e337563f)"><path fill="#ffffff" d="M 72.175781 6.003906 C 66.015625 6.003906 60.625 11.605469 60.625 18.023438 C 60.625 25.550781 71.019531 40.90625 71.449219 41.546875 C 71.617188 41.761719 71.875 41.933594 72.175781 41.933594 C 72.472656 41.933594 72.730469 41.761719 72.902344 41.546875 C 73.328125 40.863281 83.722656 24.738281 83.722656 18.023438 C 83.722656 11.605469 78.332031 6.003906 72.175781 6.003906 Z M 72.175781 39.496094 C 69.777344 35.859375 62.335938 23.96875 62.335938 18.023438 C 62.335938 12.546875 66.914062 7.714844 72.175781 7.714844 C 77.4375 7.714844 82.011719 12.546875 82.011719 18.023438 C 82.011719 23.285156 74.527344 35.730469 72.175781 39.496094 Z M 72.175781 39.496094 " fill-opacity="1" fill-rule="nonzero"/></g><path fill="#ffffff" d="M 72.175781 10.28125 C 68.152344 10.28125 64.902344 13.53125 64.902344 17.550781 C 64.902344 21.574219 68.152344 24.824219 72.175781 24.824219 C 76.195312 24.824219 79.445312 21.574219 79.445312 17.550781 C 79.445312 13.53125 76.195312 10.28125 72.175781 10.28125 Z M 72.175781 23.113281 C 69.09375 23.113281 66.613281 20.632812 66.613281 17.550781 C 66.613281 14.472656 69.09375 11.992188 72.175781 11.992188 C 75.253906 11.992188 77.734375 14.472656 77.734375 17.550781 C 77.734375 20.632812 75.253906 23.113281 72.175781 23.113281 Z M 72.175781 23.113281 " fill-opacity="1" fill-rule="nonzero"/><path fill="#ffffff" d="M 70.25 14.644531 C 70.164062 14.644531 70.035156 14.644531 69.949219 14.644531 C 69.820312 14.644531 69.695312 14.6875 69.566406 14.6875 L 69.566406 20.375 C 69.820312 20.417969 70.078125 20.460938 70.292969 20.460938 C 70.464844 20.460938 70.71875 20.417969 70.976562 20.375 L 70.976562 14.730469 C 70.847656 14.730469 70.71875 14.6875 70.59375 14.6875 C 70.464844 14.6875 70.378906 14.644531 70.25 14.644531 Z M 70.25 14.644531 " fill-opacity="1" fill-rule="nonzero"/><path fill="#ffffff" d="M 75.082031 14.984375 C 74.871094 14.859375 74.613281 14.730469 74.3125 14.6875 C 74.015625 14.644531 73.757812 14.601562 73.457031 14.601562 C 73.074219 14.601562 72.773438 14.601562 72.515625 14.644531 C 72.261719 14.6875 72.089844 14.6875 71.960938 14.730469 L 71.960938 20.417969 C 72.21875 20.460938 72.472656 20.503906 72.644531 20.503906 C 72.730469 20.503906 72.859375 20.503906 72.945312 20.503906 C 73.074219 20.503906 73.199219 20.460938 73.328125 20.460938 L 73.328125 18.621094 C 73.371094 18.621094 73.457031 18.621094 73.542969 18.664062 C 73.628906 18.664062 73.757812 18.664062 73.84375 18.664062 C 74.097656 18.664062 74.355469 18.621094 74.570312 18.578125 C 74.828125 18.535156 75.039062 18.40625 75.210938 18.28125 C 75.382812 18.152344 75.554688 17.9375 75.683594 17.679688 C 75.808594 17.425781 75.851562 17.125 75.851562 16.738281 C 75.851562 16.3125 75.765625 15.96875 75.640625 15.714844 C 75.511719 15.457031 75.296875 15.15625 75.082031 14.984375 Z M 74.183594 17.253906 C 74.054688 17.382812 73.84375 17.464844 73.628906 17.464844 C 73.542969 17.464844 73.5 17.464844 73.414062 17.464844 C 73.371094 17.464844 73.285156 17.464844 73.285156 17.425781 L 73.285156 15.796875 C 73.328125 15.796875 73.371094 15.796875 73.414062 15.796875 C 73.457031 15.796875 73.5 15.796875 73.542969 15.796875 C 73.671875 15.796875 73.757812 15.796875 73.886719 15.839844 C 73.972656 15.882812 74.097656 15.925781 74.183594 15.96875 C 74.269531 16.054688 74.3125 16.140625 74.355469 16.226562 C 74.398438 16.355469 74.441406 16.484375 74.441406 16.609375 C 74.398438 16.910156 74.355469 17.125 74.183594 17.253906 Z M 74.183594 17.253906 " fill-opacity="1" fill-rule="nonzero"/></svg>