<svg xmlns="http://www.w3.org/2000/svg" xmlns:xlink="http://www.w3.org/1999/xlink" width="150" zoomAndPan="magnify" viewBox="0 0 112.5 112.499997" height="150" preserveAspectRatio="xMidYMid meet" version="1.0"><defs><g/><clipPath id="2e372ff5ee"><path d="M 39.644531 6.433594 L 72.605469 6.433594 L 72.605469 55.398438 L 39.644531 55.398438 Z M 39.644531 6.433594 " clip-rule="nonzero"/></clipPath><clipPath id="3fb93583db"><path d="M 41.917969 57.1875 L 70.367188 57.1875 L 70.367188 62.683594 L 41.917969 62.683594 Z M 41.917969 57.1875 " clip-rule="nonzero"/></clipPath></defs><path fill="#ffffff" d="M 56.125 14.402344 C 52.382812 14.402344 49.335938 17.46875 49.335938 21.238281 C 49.335938 25.011719 52.382812 28.078125 56.125 28.078125 C 59.867188 28.078125 62.914062 25.011719 62.914062 21.238281 C 62.914062 17.46875 59.867188 14.402344 56.125 14.402344 Z M 56.125 29.542969 C 51.582031 29.542969 47.882812 25.816406 47.882812 21.238281 C 47.882812 16.660156 51.582031 12.933594 56.125 12.933594 C 60.671875 12.933594 64.367188 16.660156 64.367188 21.238281 C 64.367188 25.816406 60.671875 29.542969 56.125 29.542969 " fill-opacity="1" fill-rule="nonzero"/><g clip-path="url(#2e372ff5ee)"><path fill="#ffffff" d="M 56.125 7.945312 C 47.867188 7.945312 41.144531 14.714844 41.144531 23.035156 C 41.144531 35.667969 53.375 50.136719 56.125 53.226562 C 58.875 50.136719 71.105469 35.667969 71.105469 23.035156 C 71.105469 14.714844 64.386719 7.945312 56.125 7.945312 Z M 56.125 55.304688 L 55.664062 54.945312 C 55.496094 54.8125 51.503906 50.492188 47.632812 44.582031 C 45.324219 41.058594 43.484375 37.621094 42.160156 34.375 C 40.492188 30.28125 39.644531 26.464844 39.644531 23.035156 C 39.644531 18.601562 41.359375 14.429688 44.472656 11.296875 C 47.585938 8.160156 51.722656 6.433594 56.125 6.433594 C 60.527344 6.433594 64.664062 8.160156 67.777344 11.296875 C 70.890625 14.429688 72.605469 18.601562 72.605469 23.035156 C 72.605469 26.464844 71.757812 30.28125 70.089844 34.375 C 68.769531 37.621094 66.925781 41.058594 64.617188 44.582031 C 60.746094 50.492188 56.753906 54.8125 56.585938 54.945312 L 56.125 55.304688 " fill-opacity="1" fill-rule="nonzero"/></g><g clip-path="url(#3fb93583db)"><path fill="#ffffff" d="M 66.074219 57.238281 C 67.042969 57.613281 67.597656 58.050781 67.597656 58.515625 C 67.597656 59.933594 62.460938 61.082031 56.125 61.082031 C 49.789062 61.082031 44.652344 59.933594 44.652344 58.515625 C 44.652344 58.050781 45.207031 57.613281 46.175781 57.238281 C 43.550781 57.8125 41.921875 58.617188 41.921875 59.503906 C 41.921875 61.261719 48.28125 62.683594 56.125 62.683594 C 63.972656 62.683594 70.332031 61.261719 70.332031 59.503906 C 70.332031 58.617188 68.703125 57.8125 66.074219 57.238281 " fill-opacity="1" fill-rule="nonzero"/></g><path fill="#ffffff" d="M 61.121094 56.960938 C 61.605469 57.152344 61.886719 57.371094 61.886719 57.605469 C 61.886719 58.316406 59.308594 58.890625 56.125 58.890625 C 52.945312 58.890625 50.367188 58.316406 50.367188 57.605469 C 50.367188 57.371094 50.644531 57.152344 51.132812 56.960938 C 49.8125 57.25 48.992188 57.65625 48.992188 58.101562 C 48.992188 58.980469 52.1875 59.695312 56.125 59.695312 C 60.066406 59.695312 63.257812 58.980469 63.257812 58.101562 C 63.257812 57.65625 62.4375 57.25 61.121094 56.960938 " fill-opacity="1" fill-rule="nonzero"/></svg>