<svg xmlns="http://www.w3.org/2000/svg" xmlns:xlink="http://www.w3.org/1999/xlink" width="1700" zoomAndPan="magnify" viewBox="0 0 1275 404.99999" height="540" preserveAspectRatio="xMidYMid meet" version="1.0"><defs><g/><clipPath id="157c5767bd"><path d="M 109.644531 0 L 109.644531 405 C 110.832031 405.085938 112.019531 405.085938 113.207031 405.085938 L 1161.113281 405.085938 L 1161.113281 0 L 109.644531 0 M 1191.644531 0 L 1161.113281 0 L 1161.113281 405 L 1161.792969 405 C 1211.144531 405 1254.480469 364.71875 1258.039062 315.535156 L 1274.746094 89.378906 C 1278.390625 40.28125 1240.996094 0 1191.644531 0 M 83.355469 0 C 34.003906 0 -3.390625 40.28125 0.253906 89.464844 L 16.960938 315.621094 C 20.519531 363.617188 61.902344 403.132812 109.730469 405 L 109.730469 0 L 83.355469 0 " clip-rule="nonzero"/></clipPath><clipPath id="f953298332"><path d="M 42.730469 76.273438 L 259.480469 76.273438 L 259.480469 293.023438 L 42.730469 293.023438 Z M 42.730469 76.273438 " clip-rule="nonzero"/></clipPath></defs><g clip-path="url(#157c5767bd)"><rect x="-127.5" width="1530" fill="#0d6efd" y="-40.499999" height="485.999988" fill-opacity="1"/></g><g clip-path="url(#f953298332)"><path fill="#ffffff" d="M 163.558594 203.558594 C 156.808594 210.976562 147.984375 215.234375 139.351562 215.234375 C 123.992188 215.234375 114.070312 205.039062 114.070312 189.265625 C 114.070312 178.769531 117.925781 168.863281 124.925781 161.375 C 131.554688 154.285156 140.324219 150.21875 148.988281 150.21875 C 163.632812 150.21875 174.265625 161.335938 174.265625 176.648438 C 174.265625 186.269531 170.363281 196.078125 163.558594 203.558594 Z M 227.960938 105.894531 C 207.421875 86.792969 180.210938 76.277344 151.339844 76.277344 C 122.125 76.277344 94.746094 87.671875 74.246094 108.363281 C 53.925781 128.878906 42.730469 156.058594 42.730469 184.886719 C 42.730469 245.53125 91.242188 293.035156 153.175781 293.035156 C 175.878906 293.035156 196.574219 287.421875 216.445312 275.878906 L 217.359375 275.347656 L 218.246094 274.464844 C 219.363281 273.386719 222.324219 270.519531 222.324219 265.640625 C 222.324219 259.246094 217.027344 253.84375 210.757812 253.84375 C 209.238281 253.84375 206.769531 254.1875 204.824219 255.160156 L 204.410156 255.382812 C 187.839844 264.917969 172.519531 268.980469 153.175781 268.980469 C 129.042969 268.980469 107.046875 260.269531 91.25 244.441406 C 75.769531 228.933594 67.242188 207.785156 67.242188 184.886719 C 67.242188 162.15625 75.769531 140.9375 91.246094 125.128906 C 106.914062 109.136719 128.253906 100.328125 151.339844 100.328125 C 174.027344 100.328125 195.332031 108.664062 211.339844 123.800781 C 226.363281 138.007812 234.976562 156.761719 234.976562 175.25 C 234.976562 188.472656 232.125 199.148438 226.726562 206.121094 C 222.605469 211.449219 217.011719 214.382812 210.988281 214.382812 C 203.121094 214.382812 199.613281 211.160156 199.613281 203.925781 C 199.613281 201.792969 200.070312 197.082031 201.09375 191.359375 L 209.359375 144.984375 C 210.214844 140.058594 208.929688 135.117188 205.824219 131.429688 C 202.832031 127.867188 198.441406 125.828125 193.78125 125.828125 C 187.734375 125.828125 182.65625 128.972656 179.820312 134.253906 C 171.835938 127.746094 161.964844 124.453125 150.421875 124.453125 C 135.417969 124.453125 120.101562 131.300781 108.402344 143.234375 C 96.085938 155.800781 89.300781 172.300781 89.300781 189.703125 C 89.300781 203.851562 94.46875 216.691406 103.851562 225.855469 C 112.910156 234.707031 125.214844 239.582031 138.492188 239.582031 C 152.136719 239.582031 164.027344 234.957031 174.742188 225.460938 C 182.28125 234.59375 194.125 239.582031 208.464844 239.582031 C 222.105469 239.582031 234.703125 233.820312 243.925781 223.351562 C 254.109375 211.796875 259.488281 195.164062 259.488281 175.25 C 259.488281 149.804688 247.996094 124.523438 227.960938 105.894531 " fill-opacity="1" fill-rule="nonzero"/></g><g fill="#ffffff" fill-opacity="1"><g transform="translate(266.123201, 257.967313)"><g><path d="M 87.199219 -86.980469 C 78.914062 -95.046875 67.578125 -99.625 54.28125 -99.625 C 25.941406 -99.625 6.320312 -78.476562 6.320312 -48.175781 C 6.320312 -17.65625 25.941406 3.488281 54.28125 3.488281 C 70.195312 3.488281 83.382812 -3.160156 91.886719 -14.496094 C 97.117188 -3.597656 106.597656 2.179688 119.898438 2.179688 L 119.898438 -122.078125 C 119.898438 -144.53125 108.34375 -159.136719 87.199219 -163.496094 Z M 64.308594 -22.671875 C 51.011719 -22.671875 41.417969 -33.136719 41.417969 -47.957031 C 41.417969 -62.78125 51.011719 -73.246094 64.308594 -73.246094 C 77.605469 -73.246094 87.199219 -62.78125 87.199219 -47.957031 C 87.199219 -33.136719 77.605469 -22.671875 64.308594 -22.671875 Z M 64.308594 -22.671875 "/></g></g></g><g fill="#ffffff" fill-opacity="1"><g transform="translate(396.702452, 257.967313)"><g><path d="M 72.375 0 C 74.773438 0 76.515625 -1.308594 77.386719 -3.488281 L 113.355469 -98.316406 C 90.902344 -98.316406 76.515625 -87.199219 68.449219 -62.78125 L 56.679688 -27.46875 L 34.878906 -92.648438 C 34.007812 -95.046875 32.480469 -96.136719 30.082031 -96.136719 L 6.320312 -96.136719 C 3.050781 -96.136719 1.742188 -94.175781 2.832031 -91.121094 L 36.1875 -3.488281 C 37.058594 -1.308594 38.804688 0 41.199219 0 Z M 72.375 0 "/></g></g></g><g fill="#ffffff" fill-opacity="1"><g transform="translate(511.80403, 257.967313)"><g><path d="M 61.910156 -99.625 C 29.648438 -99.625 5.886719 -79.351562 5.886719 -47.957031 C 5.886719 -16.132812 28.773438 3.488281 61.910156 3.488281 C 85.890625 3.488281 104.855469 -6.976562 112.484375 -28.773438 C 113.574219 -31.828125 111.832031 -33.789062 108.78125 -33.789062 L 84.582031 -33.789062 C 82.183594 -33.789062 80.875 -32.480469 79.785156 -30.082031 C 77.171875 -24.199219 70.847656 -19.835938 61.257812 -19.835938 C 49.050781 -19.835938 41.417969 -28.558594 40.546875 -41.855469 L 110.742188 -41.855469 C 113.574219 -41.855469 115.101562 -43.382812 115.101562 -46.214844 L 115.101562 -50.140625 C 115.101562 -81.964844 91.121094 -99.625 61.910156 -99.625 Z M 40.984375 -59.511719 C 42.835938 -69.976562 48.722656 -77.386719 60.820312 -77.386719 C 72.375 -77.386719 79.785156 -69.976562 80.441406 -59.511719 Z M 40.984375 -59.511719 "/></g></g></g><g fill="#ffffff" fill-opacity="1"><g transform="translate(633.227484, 257.967313)"><g><path d="M 74.554688 -97.445312 C 72.375 -97.878906 69.757812 -98.316406 67.359375 -98.316406 C 55.808594 -98.316406 45.015625 -93.082031 38.148438 -79.132812 C 32.917969 -89.050781 23.542969 -95.589844 10.464844 -98.316406 L 10.464844 -4.359375 C 10.464844 -1.527344 11.988281 0 14.824219 0 L 38.804688 0 C 41.636719 0 43.164062 -1.527344 43.164062 -4.359375 L 43.164062 -48.394531 C 44.472656 -61.691406 51.230469 -68.667969 63 -68.667969 C 66.050781 -68.667969 69.324219 -68.234375 73.027344 -67.359375 C 76.082031 -66.488281 78.042969 -67.796875 78.042969 -70.847656 L 78.042969 -92.429688 C 78.042969 -94.828125 76.953125 -96.789062 74.554688 -97.445312 Z M 74.554688 -97.445312 "/></g></g></g><g fill="#ffffff" fill-opacity="1"><g transform="translate(714.975739, 257.967313)"><g><path d="M 5.230469 -148.238281 C 2.398438 -148.238281 0.871094 -146.710938 0.871094 -143.875 L 0.871094 -122.949219 C 0.871094 -120.117188 2.398438 -118.589844 5.230469 -118.589844 L 62.78125 -118.589844 C 49.703125 -113.03125 40.984375 -97.335938 40.984375 -77.386719 L 40.984375 -4.359375 C 40.984375 -1.527344 42.507812 0 45.34375 0 L 69.324219 0 C 72.15625 0 73.683594 -1.527344 73.683594 -4.359375 L 73.683594 -118.589844 L 109.433594 -118.589844 C 112.265625 -118.589844 113.792969 -120.117188 113.792969 -122.949219 L 113.792969 -143.875 C 113.792969 -146.710938 112.265625 -148.238281 109.433594 -148.238281 Z M 5.230469 -148.238281 "/></g></g></g><g fill="#ffffff" fill-opacity="1"><g transform="translate(829.859353, 257.967313)"><g><path d="M 61.039062 3.488281 C 95.265625 3.488281 115.753906 -17.65625 115.753906 -47.957031 C 115.753906 -78.042969 95.046875 -99.625 61.039062 -99.625 C 26.8125 -99.625 6.105469 -78.042969 6.105469 -47.957031 C 6.105469 -17.875 26.59375 3.488281 61.039062 3.488281 Z M 61.039062 -22.015625 C 46.433594 -22.015625 38.585938 -33.351562 38.585938 -47.742188 C 38.585938 -62.347656 46.652344 -74.117188 61.039062 -74.117188 C 75.425781 -74.117188 83.273438 -62.566406 83.273438 -47.742188 C 83.273438 -33.136719 75.425781 -22.015625 61.039062 -22.015625 Z M 61.039062 -22.015625 "/></g></g></g><g fill="#ffffff" fill-opacity="1"><g transform="translate(951.936814, 257.967313)"><g><path d="M 61.039062 3.488281 C 95.265625 3.488281 115.753906 -17.65625 115.753906 -47.957031 C 115.753906 -78.042969 95.046875 -99.625 61.039062 -99.625 C 26.8125 -99.625 6.105469 -78.042969 6.105469 -47.957031 C 6.105469 -17.875 26.59375 3.488281 61.039062 3.488281 Z M 61.039062 -22.015625 C 46.433594 -22.015625 38.585938 -33.351562 38.585938 -47.742188 C 38.585938 -62.347656 46.652344 -74.117188 61.039062 -74.117188 C 75.425781 -74.117188 83.273438 -62.566406 83.273438 -47.742188 C 83.273438 -33.136719 75.425781 -22.015625 61.039062 -22.015625 Z M 61.039062 -22.015625 "/></g></g></g><g fill="#ffffff" fill-opacity="1"><g transform="translate(1074.014228, 257.967313)"><g><path d="M 38.804688 0 C 41.636719 0 43.164062 -1.527344 43.164062 -4.359375 L 43.164062 -122.078125 C 43.164062 -144.53125 31.609375 -159.136719 10.464844 -163.496094 L 10.464844 -4.359375 C 10.464844 -1.527344 11.988281 0 14.824219 0 Z M 38.804688 0 "/></g></g></g><g fill="#ffffff" fill-opacity="1"><g transform="translate(1127.859043, 257.967313)"><g><path d="M 57.988281 3.488281 C 88.722656 3.488281 106.597656 -9.375 106.597656 -31.609375 C 106.597656 -71.285156 42.292969 -56.242188 42.292969 -73.027344 C 42.292969 -76.296875 45.5625 -79.351562 53.191406 -79.351562 C 62.566406 -79.351562 67.140625 -76.296875 69.757812 -70.628906 C 70.847656 -68.234375 72.375 -66.925781 74.773438 -66.925781 L 98.097656 -66.925781 C 101.148438 -66.925781 102.675781 -68.667969 102.023438 -71.71875 C 97.226562 -90.46875 80.441406 -99.625 54.933594 -99.625 C 25.289062 -99.625 9.375 -87.199219 9.375 -68.667969 C 9.375 -29.867188 73.683594 -46.433594 73.683594 -28.558594 C 73.683594 -23.109375 68.886719 -19.183594 58.640625 -19.183594 C 52.753906 -19.183594 40.765625 -21.363281 38.148438 -31.609375 C 37.496094 -34.226562 36.1875 -35.75 33.570312 -35.75 L 9.808594 -35.75 C 6.976562 -35.75 5.230469 -34.007812 5.667969 -31.171875 C 9.808594 -6.976562 30.300781 3.488281 57.988281 3.488281 Z M 57.988281 3.488281 "/></g></g></g></svg>