<svg xmlns="http://www.w3.org/2000/svg" xmlns:xlink="http://www.w3.org/1999/xlink" width="150" zoomAndPan="magnify" viewBox="0 0 112.5 112.499997" height="150" preserveAspectRatio="xMidYMid meet" version="1.0"><defs><g/><clipPath id="6b4c09ca82"><path d="M 13.082031 16.238281 L 99.332031 16.238281 L 99.332031 35.738281 L 13.082031 35.738281 Z M 13.082031 16.238281 " clip-rule="nonzero"/></clipPath></defs><path fill="#ffffff" d="M 86.601562 22.09375 C 85.515625 23.136719 85.464844 24.898438 86.5 26.015625 C 87.535156 27.128906 89.277344 27.164062 90.363281 26.121094 C 91.46875 25.074219 91.503906 23.3125 90.46875 22.195312 C 89.433594 21.082031 87.691406 21.027344 86.601562 22.09375 Z M 90.691406 23.714844 C 90.65625 23.75 90.605469 23.785156 90.554688 23.800781 C 90.382812 23.851562 90.175781 23.765625 90.121094 23.574219 C 89.984375 23.101562 89.65625 22.738281 89.242188 22.511719 C 88.8125 22.285156 88.328125 22.25 87.878906 22.390625 C 87.707031 22.441406 87.5 22.355469 87.449219 22.160156 C 87.398438 21.96875 87.484375 21.777344 87.671875 21.726562 C 88.3125 21.515625 88.984375 21.585938 89.570312 21.882812 C 90.15625 22.195312 90.589844 22.71875 90.792969 23.347656 C 90.828125 23.488281 90.777344 23.609375 90.691406 23.714844 Z M 90.691406 23.714844 " fill-opacity="1" fill-rule="nonzero"/><g clip-path="url(#6b4c09ca82)"><path fill="#ffffff" d="M 91.8125 16.25 L 81.1875 16.25 L 81.1875 16.269531 L 21.019531 16.269531 C 16.65625 16.269531 13.082031 19.722656 13.082031 23.957031 L 13.082031 28.019531 C 13.082031 32.257812 16.65625 35.707031 21.019531 35.707031 L 81.1875 35.707031 L 81.1875 35.726562 L 91.8125 35.726562 C 95.96875 35.726562 99.332031 32.308594 99.332031 28.105469 L 99.332031 23.871094 C 99.332031 19.667969 95.96875 16.25 91.8125 16.25 Z M 21.019531 34.871094 C 17.101562 34.871094 13.929688 31.804688 13.929688 28.039062 L 13.929688 23.957031 C 13.929688 20.191406 17.121094 17.125 21.019531 17.125 L 81.1875 17.125 L 81.1875 34.855469 L 21.019531 34.855469 Z M 94.710938 30.722656 C 94.433594 30.984375 94.003906 30.964844 93.796875 30.757812 L 90.621094 27.355469 C 89.085938 28.402344 86.984375 28.195312 85.671875 26.800781 C 84.207031 25.230469 84.273438 22.753906 85.808594 21.273438 C 87.363281 19.792969 89.792969 19.859375 91.261719 21.414062 C 92.554688 22.808594 92.65625 24.898438 91.589844 26.398438 L 94.78125 29.816406 C 94.988281 30.023438 94.988281 30.460938 94.710938 30.722656 Z M 94.710938 30.722656 " fill-opacity="1" fill-rule="nonzero"/></g><g fill="#ffffff" fill-opacity="1"><g transform="translate(14.659506, 28.430621)"><g><path d="M 2.1875 0 L 1.125 0 L 0.140625 -4.09375 L 1.09375 -4.09375 L 1.703125 -1.328125 L 1.78125 -1.328125 L 2.5625 -4.09375 L 3.453125 -4.09375 L 4.25 -1.328125 L 4.328125 -1.328125 L 4.90625 -4.09375 L 5.84375 -4.09375 L 4.875 0 L 3.796875 0 L 3.015625 -2.78125 L 2.9375 -2.78125 Z M 2.1875 0 "/></g></g></g><g fill="#ffffff" fill-opacity="1"><g transform="translate(20.356439, 28.430621)"><g><path d="M 2.1875 0 L 1.125 0 L 0.140625 -4.09375 L 1.09375 -4.09375 L 1.703125 -1.328125 L 1.78125 -1.328125 L 2.5625 -4.09375 L 3.453125 -4.09375 L 4.25 -1.328125 L 4.328125 -1.328125 L 4.90625 -4.09375 L 5.84375 -4.09375 L 4.875 0 L 3.796875 0 L 3.015625 -2.78125 L 2.9375 -2.78125 Z M 2.1875 0 "/></g></g></g><g fill="#ffffff" fill-opacity="1"><g transform="translate(26.053373, 28.430621)"><g><path d="M 2.1875 0 L 1.125 0 L 0.140625 -4.09375 L 1.09375 -4.09375 L 1.703125 -1.328125 L 1.78125 -1.328125 L 2.5625 -4.09375 L 3.453125 -4.09375 L 4.25 -1.328125 L 4.328125 -1.328125 L 4.90625 -4.09375 L 5.84375 -4.09375 L 4.875 0 L 3.796875 0 L 3.015625 -2.78125 L 2.9375 -2.78125 Z M 2.1875 0 "/></g></g></g><g fill="#ffffff" fill-opacity="1"><g transform="translate(31.750307, 28.430621)"><g><path d="M 1.046875 0.03125 C 0.910156 0.03125 0.789062 0.00390625 0.6875 -0.046875 C 0.59375 -0.0976562 0.519531 -0.171875 0.46875 -0.265625 C 0.414062 -0.359375 0.390625 -0.460938 0.390625 -0.578125 C 0.390625 -0.703125 0.414062 -0.8125 0.46875 -0.90625 C 0.519531 -1 0.59375 -1.070312 0.6875 -1.125 C 0.789062 -1.175781 0.910156 -1.203125 1.046875 -1.203125 C 1.179688 -1.203125 1.296875 -1.175781 1.390625 -1.125 C 1.492188 -1.070312 1.570312 -1 1.625 -0.90625 C 1.675781 -0.8125 1.703125 -0.707031 1.703125 -0.59375 C 1.703125 -0.40625 1.640625 -0.253906 1.515625 -0.140625 C 1.398438 -0.0234375 1.242188 0.03125 1.046875 0.03125 Z M 1.046875 0.03125 "/></g></g></g><g fill="#ffffff" fill-opacity="1"><g transform="translate(33.558184, 28.430621)"><g><path d="M 4.046875 -1.8125 L 1.421875 -1.8125 C 1.441406 -1.457031 1.535156 -1.195312 1.703125 -1.03125 C 1.878906 -0.875 2.117188 -0.796875 2.421875 -0.796875 C 2.660156 -0.796875 2.851562 -0.835938 3 -0.921875 C 3.144531 -1.015625 3.257812 -1.148438 3.34375 -1.328125 L 3.421875 -1.328125 L 4.109375 -0.890625 C 3.972656 -0.597656 3.769531 -0.363281 3.5 -0.1875 C 3.226562 -0.0078125 2.867188 0.078125 2.421875 0.078125 C 2.003906 0.078125 1.640625 0 1.328125 -0.15625 C 1.023438 -0.320312 0.785156 -0.5625 0.609375 -0.875 C 0.441406 -1.195312 0.359375 -1.585938 0.359375 -2.046875 C 0.359375 -2.503906 0.445312 -2.894531 0.625 -3.21875 C 0.800781 -3.539062 1.039062 -3.78125 1.34375 -3.9375 C 1.644531 -4.09375 1.976562 -4.171875 2.34375 -4.171875 C 2.925781 -4.171875 3.367188 -4.015625 3.671875 -3.703125 C 3.984375 -3.398438 4.140625 -2.953125 4.140625 -2.359375 C 4.140625 -2.140625 4.132812 -1.972656 4.125 -1.859375 Z M 3.15625 -2.484375 C 3.144531 -2.785156 3.070312 -3.007812 2.9375 -3.15625 C 2.800781 -3.300781 2.601562 -3.375 2.34375 -3.375 C 1.832031 -3.375 1.53125 -3.078125 1.4375 -2.484375 Z M 3.15625 -2.484375 "/></g></g></g><g fill="#ffffff" fill-opacity="1"><g transform="translate(37.718793, 28.430621)"><g><path d="M 1.15625 0 L 0.078125 0 L 1.234375 -2.125 L 0.140625 -4.09375 L 1.234375 -4.09375 L 1.9375 -2.75 L 2.03125 -2.75 L 2.734375 -4.09375 L 3.796875 -4.09375 L 2.734375 -2.125 L 3.859375 0 L 2.765625 0 L 2 -1.5 L 1.90625 -1.5 Z M 1.15625 0 "/></g></g></g><g fill="#ffffff" fill-opacity="1"><g transform="translate(41.367291, 28.430621)"><g><path d="M 1.59375 0.078125 C 1.332031 0.078125 1.101562 0.03125 0.90625 -0.0625 C 0.71875 -0.164062 0.570312 -0.304688 0.46875 -0.484375 C 0.363281 -0.671875 0.3125 -0.898438 0.3125 -1.171875 C 0.3125 -1.410156 0.363281 -1.609375 0.46875 -1.765625 C 0.570312 -1.929688 0.734375 -2.066406 0.953125 -2.171875 C 1.171875 -2.285156 1.453125 -2.367188 1.796875 -2.421875 C 2.046875 -2.460938 2.234375 -2.503906 2.359375 -2.546875 C 2.484375 -2.597656 2.566406 -2.648438 2.609375 -2.703125 C 2.660156 -2.765625 2.6875 -2.84375 2.6875 -2.9375 C 2.6875 -3.070312 2.640625 -3.171875 2.546875 -3.234375 C 2.453125 -3.304688 2.300781 -3.34375 2.09375 -3.34375 C 1.863281 -3.34375 1.644531 -3.289062 1.4375 -3.1875 C 1.238281 -3.082031 1.0625 -2.945312 0.90625 -2.78125 L 0.828125 -2.78125 L 0.40625 -3.4375 C 0.613281 -3.664062 0.863281 -3.84375 1.15625 -3.96875 C 1.457031 -4.101562 1.785156 -4.171875 2.140625 -4.171875 C 2.679688 -4.171875 3.070312 -4.054688 3.3125 -3.828125 C 3.5625 -3.597656 3.6875 -3.269531 3.6875 -2.84375 L 3.6875 -1.0625 C 3.6875 -0.882812 3.765625 -0.796875 3.921875 -0.796875 C 3.984375 -0.796875 4.046875 -0.804688 4.109375 -0.828125 L 4.15625 -0.8125 L 4.234375 -0.09375 C 4.171875 -0.0625 4.085938 -0.03125 3.984375 0 C 3.890625 0.0195312 3.78125 0.03125 3.65625 0.03125 C 3.414062 0.03125 3.222656 -0.015625 3.078125 -0.109375 C 2.941406 -0.203125 2.847656 -0.347656 2.796875 -0.546875 L 2.71875 -0.5625 C 2.507812 -0.132812 2.132812 0.078125 1.59375 0.078125 Z M 1.921875 -0.6875 C 2.160156 -0.6875 2.347656 -0.765625 2.484375 -0.921875 C 2.628906 -1.085938 2.703125 -1.3125 2.703125 -1.59375 L 2.703125 -2.015625 L 2.625 -2.03125 C 2.570312 -1.976562 2.492188 -1.929688 2.390625 -1.890625 C 2.285156 -1.859375 2.140625 -1.828125 1.953125 -1.796875 C 1.734375 -1.765625 1.570312 -1.703125 1.46875 -1.609375 C 1.375 -1.515625 1.328125 -1.390625 1.328125 -1.234375 C 1.328125 -1.054688 1.378906 -0.921875 1.484375 -0.828125 C 1.585938 -0.734375 1.734375 -0.6875 1.921875 -0.6875 Z M 1.921875 -0.6875 "/></g></g></g><g fill="#ffffff" fill-opacity="1"><g transform="translate(45.394304, 28.430621)"><g><path d="M 0.59375 0 L 0.59375 -4.09375 L 1.578125 -4.09375 L 1.578125 -3.546875 L 1.65625 -3.53125 C 1.789062 -3.75 1.945312 -3.910156 2.125 -4.015625 C 2.300781 -4.117188 2.53125 -4.171875 2.8125 -4.171875 C 3.125 -4.171875 3.375 -4.109375 3.5625 -3.984375 C 3.75 -3.859375 3.882812 -3.679688 3.96875 -3.453125 L 4.046875 -3.453125 C 4.171875 -3.691406 4.332031 -3.867188 4.53125 -3.984375 C 4.726562 -4.109375 4.976562 -4.171875 5.28125 -4.171875 C 6.125 -4.171875 6.546875 -3.695312 6.546875 -2.75 L 6.546875 0 L 5.515625 0 L 5.515625 -2.625 C 5.515625 -2.863281 5.46875 -3.035156 5.375 -3.140625 C 5.28125 -3.242188 5.128906 -3.296875 4.921875 -3.296875 C 4.359375 -3.296875 4.078125 -2.921875 4.078125 -2.171875 L 4.078125 0 L 3.0625 0 L 3.0625 -2.625 C 3.0625 -2.863281 3.007812 -3.035156 2.90625 -3.140625 C 2.8125 -3.242188 2.660156 -3.296875 2.453125 -3.296875 C 2.191406 -3.296875 1.984375 -3.207031 1.828125 -3.03125 C 1.679688 -2.851562 1.609375 -2.570312 1.609375 -2.1875 L 1.609375 0 Z M 0.59375 0 "/></g></g></g><g fill="#ffffff" fill-opacity="1"><g transform="translate(52.185962, 28.430621)"><g><path d="M 0.59375 1.65625 L 0.59375 -4.09375 L 1.609375 -4.09375 L 1.609375 -3.5625 L 1.6875 -3.546875 C 1.8125 -3.753906 1.972656 -3.910156 2.171875 -4.015625 C 2.378906 -4.117188 2.617188 -4.171875 2.890625 -4.171875 C 3.222656 -4.171875 3.507812 -4.09375 3.75 -3.9375 C 4 -3.78125 4.191406 -3.539062 4.328125 -3.21875 C 4.460938 -2.90625 4.53125 -2.515625 4.53125 -2.046875 C 4.53125 -1.578125 4.457031 -1.179688 4.3125 -0.859375 C 4.164062 -0.546875 3.960938 -0.3125 3.703125 -0.15625 C 3.453125 0 3.160156 0.078125 2.828125 0.078125 C 2.566406 0.078125 2.34375 0.0351562 2.15625 -0.046875 C 1.976562 -0.128906 1.820312 -0.265625 1.6875 -0.453125 L 1.609375 -0.4375 L 1.609375 1.65625 Z M 2.546875 -0.796875 C 2.847656 -0.796875 3.078125 -0.894531 3.234375 -1.09375 C 3.390625 -1.289062 3.46875 -1.609375 3.46875 -2.046875 C 3.46875 -2.472656 3.390625 -2.785156 3.234375 -2.984375 C 3.078125 -3.191406 2.847656 -3.296875 2.546875 -3.296875 C 2.253906 -3.296875 2.023438 -3.191406 1.859375 -2.984375 C 1.691406 -2.773438 1.609375 -2.460938 1.609375 -2.046875 C 1.609375 -1.628906 1.691406 -1.316406 1.859375 -1.109375 C 2.023438 -0.898438 2.253906 -0.796875 2.546875 -0.796875 Z M 2.546875 -0.796875 "/></g></g></g><g fill="#ffffff" fill-opacity="1"><g transform="translate(56.799303, 28.430621)"><g><path d="M 1.703125 0.078125 C 1.328125 0.078125 1.039062 -0.0195312 0.84375 -0.21875 C 0.65625 -0.414062 0.5625 -0.71875 0.5625 -1.125 L 0.5625 -5.734375 L 1.59375 -5.734375 L 1.59375 -1.171875 C 1.59375 -0.921875 1.695312 -0.796875 1.90625 -0.796875 C 1.957031 -0.796875 2.019531 -0.804688 2.09375 -0.828125 L 2.140625 -0.8125 L 2.234375 -0.015625 C 2.179688 0.015625 2.109375 0.0351562 2.015625 0.046875 C 1.921875 0.0664062 1.816406 0.078125 1.703125 0.078125 Z M 1.703125 0.078125 "/></g></g></g><g fill="#ffffff" fill-opacity="1"><g transform="translate(58.863233, 28.430621)"><g><path d="M 4.046875 -1.8125 L 1.421875 -1.8125 C 1.441406 -1.457031 1.535156 -1.195312 1.703125 -1.03125 C 1.878906 -0.875 2.117188 -0.796875 2.421875 -0.796875 C 2.660156 -0.796875 2.851562 -0.835938 3 -0.921875 C 3.144531 -1.015625 3.257812 -1.148438 3.34375 -1.328125 L 3.421875 -1.328125 L 4.109375 -0.890625 C 3.972656 -0.597656 3.769531 -0.363281 3.5 -0.1875 C 3.226562 -0.0078125 2.867188 0.078125 2.421875 0.078125 C 2.003906 0.078125 1.640625 0 1.328125 -0.15625 C 1.023438 -0.320312 0.785156 -0.5625 0.609375 -0.875 C 0.441406 -1.195312 0.359375 -1.585938 0.359375 -2.046875 C 0.359375 -2.503906 0.445312 -2.894531 0.625 -3.21875 C 0.800781 -3.539062 1.039062 -3.78125 1.34375 -3.9375 C 1.644531 -4.09375 1.976562 -4.171875 2.34375 -4.171875 C 2.925781 -4.171875 3.367188 -4.015625 3.671875 -3.703125 C 3.984375 -3.398438 4.140625 -2.953125 4.140625 -2.359375 C 4.140625 -2.140625 4.132812 -1.972656 4.125 -1.859375 Z M 3.15625 -2.484375 C 3.144531 -2.785156 3.070312 -3.007812 2.9375 -3.15625 C 2.800781 -3.300781 2.601562 -3.375 2.34375 -3.375 C 1.832031 -3.375 1.53125 -3.078125 1.4375 -2.484375 Z M 3.15625 -2.484375 "/></g></g></g><g fill="#ffffff" fill-opacity="1"><g transform="translate(63.02384, 28.430621)"><g><path d="M 1.046875 0.03125 C 0.910156 0.03125 0.789062 0.00390625 0.6875 -0.046875 C 0.59375 -0.0976562 0.519531 -0.171875 0.46875 -0.265625 C 0.414062 -0.359375 0.390625 -0.460938 0.390625 -0.578125 C 0.390625 -0.703125 0.414062 -0.8125 0.46875 -0.90625 C 0.519531 -1 0.59375 -1.070312 0.6875 -1.125 C 0.789062 -1.175781 0.910156 -1.203125 1.046875 -1.203125 C 1.179688 -1.203125 1.296875 -1.175781 1.390625 -1.125 C 1.492188 -1.070312 1.570312 -1 1.625 -0.90625 C 1.675781 -0.8125 1.703125 -0.707031 1.703125 -0.59375 C 1.703125 -0.40625 1.640625 -0.253906 1.515625 -0.140625 C 1.398438 -0.0234375 1.242188 0.03125 1.046875 0.03125 Z M 1.046875 0.03125 "/></g></g></g><g fill="#ffffff" fill-opacity="1"><g transform="translate(64.831717, 28.430621)"><g><path d="M 2.390625 0.078125 C 1.992188 0.078125 1.640625 -0.00390625 1.328125 -0.171875 C 1.023438 -0.335938 0.785156 -0.578125 0.609375 -0.890625 C 0.441406 -1.210938 0.359375 -1.597656 0.359375 -2.046875 C 0.359375 -2.492188 0.441406 -2.875 0.609375 -3.1875 C 0.785156 -3.507812 1.023438 -3.753906 1.328125 -3.921875 C 1.628906 -4.085938 1.972656 -4.171875 2.359375 -4.171875 C 3.222656 -4.171875 3.773438 -3.859375 4.015625 -3.234375 L 3.3125 -2.71875 L 3.234375 -2.71875 C 3.148438 -2.914062 3.039062 -3.0625 2.90625 -3.15625 C 2.769531 -3.25 2.585938 -3.296875 2.359375 -3.296875 C 2.066406 -3.296875 1.835938 -3.191406 1.671875 -2.984375 C 1.503906 -2.785156 1.421875 -2.472656 1.421875 -2.046875 C 1.421875 -1.617188 1.503906 -1.300781 1.671875 -1.09375 C 1.835938 -0.894531 2.078125 -0.796875 2.390625 -0.796875 C 2.609375 -0.796875 2.796875 -0.851562 2.953125 -0.96875 C 3.109375 -1.09375 3.21875 -1.265625 3.28125 -1.484375 L 3.359375 -1.5 L 4.09375 -1.09375 C 3.988281 -0.75 3.796875 -0.46875 3.515625 -0.25 C 3.234375 -0.03125 2.859375 0.078125 2.390625 0.078125 Z M 2.390625 0.078125 "/></g></g></g><g fill="#ffffff" fill-opacity="1"><g transform="translate(68.762246, 28.430621)"><g><path d="M 2.375 0.078125 C 1.976562 0.078125 1.628906 -0.00390625 1.328125 -0.171875 C 1.023438 -0.335938 0.785156 -0.578125 0.609375 -0.890625 C 0.441406 -1.210938 0.359375 -1.597656 0.359375 -2.046875 C 0.359375 -2.492188 0.441406 -2.875 0.609375 -3.1875 C 0.785156 -3.507812 1.023438 -3.753906 1.328125 -3.921875 C 1.628906 -4.085938 1.976562 -4.171875 2.375 -4.171875 C 2.78125 -4.171875 3.132812 -4.085938 3.4375 -3.921875 C 3.738281 -3.753906 3.972656 -3.507812 4.140625 -3.1875 C 4.304688 -2.875 4.390625 -2.492188 4.390625 -2.046875 C 4.390625 -1.597656 4.304688 -1.210938 4.140625 -0.890625 C 3.972656 -0.578125 3.738281 -0.335938 3.4375 -0.171875 C 3.132812 -0.00390625 2.78125 0.078125 2.375 0.078125 Z M 2.375 -0.796875 C 3.007812 -0.796875 3.328125 -1.210938 3.328125 -2.046875 C 3.328125 -2.472656 3.242188 -2.785156 3.078125 -2.984375 C 2.921875 -3.191406 2.6875 -3.296875 2.375 -3.296875 C 1.738281 -3.296875 1.421875 -2.878906 1.421875 -2.046875 C 1.421875 -1.210938 1.738281 -0.796875 2.375 -0.796875 Z M 2.375 -0.796875 "/></g></g></g><g fill="#ffffff" fill-opacity="1"><g transform="translate(73.23086, 28.430621)"><g><path d="M 0.59375 0 L 0.59375 -4.09375 L 1.578125 -4.09375 L 1.578125 -3.546875 L 1.65625 -3.53125 C 1.789062 -3.75 1.945312 -3.910156 2.125 -4.015625 C 2.300781 -4.117188 2.53125 -4.171875 2.8125 -4.171875 C 3.125 -4.171875 3.375 -4.109375 3.5625 -3.984375 C 3.75 -3.859375 3.882812 -3.679688 3.96875 -3.453125 L 4.046875 -3.453125 C 4.171875 -3.691406 4.332031 -3.867188 4.53125 -3.984375 C 4.726562 -4.109375 4.976562 -4.171875 5.28125 -4.171875 C 6.125 -4.171875 6.546875 -3.695312 6.546875 -2.75 L 6.546875 0 L 5.515625 0 L 5.515625 -2.625 C 5.515625 -2.863281 5.46875 -3.035156 5.375 -3.140625 C 5.28125 -3.242188 5.128906 -3.296875 4.921875 -3.296875 C 4.359375 -3.296875 4.078125 -2.921875 4.078125 -2.171875 L 4.078125 0 L 3.0625 0 L 3.0625 -2.625 C 3.0625 -2.863281 3.007812 -3.035156 2.90625 -3.140625 C 2.8125 -3.242188 2.660156 -3.296875 2.453125 -3.296875 C 2.191406 -3.296875 1.984375 -3.207031 1.828125 -3.03125 C 1.679688 -2.851562 1.609375 -2.570312 1.609375 -2.1875 L 1.609375 0 Z M 0.59375 0 "/></g></g></g></svg>