<?xml version="1.0" encoding="utf-8"?>
<svg xmlns="http://www.w3.org/2000/svg" xmlns:xlink="http://www.w3.org/1999/xlink" version= "1.1" width="1920px" height="1300px" viewBox="-600 64 1920 1300">
<g id="layer1">
<g style="fill:rgb(0,128,128); fill-opacity:1.0; stroke-linejoin: miter">
<path d="M-600.001,62.661922C-600.3556,62.661922,-600.6957,62.80279,-600.9464,63.053543C-601.19714,63.304295,-601.3381,63.644386,-601.3381,63.999L-601.3371,1364.0C-601.3371,1364.7384,-600.73846,1365.337,-600.0,1365.337L1320.001,1365.338C1320.3556,1365.338,1320.6957,1365.1971,1320.9464,1364.9464C1321.1971,1364.6957,1321.338,1364.3556,1321.338,1364.001L1321.337,64.0C1321.337,63.26155,1320.7384,62.66292,1320.0,62.66292L-600.001,62.661922 Z"/>
</g>
</g>
<g id="layer2">
<g style="fill:rgb(0,0,0); fill-opacity:0.31764707; stroke-linejoin: miter">
<path d="M1087.5205,1290.4155L1080.5645,1292.4941Q1031.1045,1298.7957,791.1092,1302.7163Q549.4532,1306.6361,221.97223,1306.1493Q-90.56532,1305.3701,-277.95172,1300.6857Q-465.18665,1295.9663,-429.80316,1289.3754Q-380.3443,1283.0742,-140.34915,1279.1528Q101.30667,1275.2344,428.78723,1275.7207Q741.3254,1276.4994,928.7121,1281.1849Q988.75336,1282.6995,1027.6233,1284.5071L1060.2935,1286.371Q1087.2161,1288.2994,1087.5205,1290.4155 Z"/>
</g>
<g style="fill:rgb(0,174,199); fill-opacity:1.0; stroke-linejoin: miter">
<path d="M98.04342,445.14188L98.52571,1150.0475L-336.35074,1150.3464L-336.8337,445.43872 Z"/>
</g>
<g style="fill:rgb(0,0,0); fill-opacity:1.0; stroke-linejoin: miter">
<path d="M98.52571,1150.0475L-336.35074,1150.3464L-336.8337,445.43872L98.04342,445.1435L98.52571,1150.0475 Z M-152.7037,1221.7952C-152.71698,1202.4144,-137.16388,1186.6831,-117.96149,1186.6703C-98.75287,1186.6567,-83.184555,1202.3673,-83.17125,1221.7482C-83.157715,1241.1207,-98.70474,1256.8798,-117.91342,1256.8939C-137.11514,1256.8799,-152.69052,1241.168,-152.7037,1221.7952 M127.77481,1253.4625L127.83429,1253.4645L127.25584,408.6868L127.25589,408.6805L127.25578,408.50983L127.242645,408.51196C127.137215,389.2221,111.477234,373.62213,92.156715,373.6352C92.01846,373.6352,91.90698,373.64874,91.781975,373.64874L91.78214,373.63556L12.99585,373.6914L-216.85458,373.84723L-331.04416,373.9257C-350.33862,373.9508,-365.96417,389.57175,-366.05652,408.84656L-366.06244,408.8487L-365.48358,1253.7906L-365.43164,1253.7924C-365.44403,1254.1584,-365.4831,1254.5199,-365.4829,1254.9015C-365.4699,1273.8015,-349.57367,1289.1185,-329.97095,1289.105C-329.68216,1289.105,-329.39935,1289.0654,-329.1104,1289.0581L-329.11032,1289.1044L93.26216,1288.8191L93.26199,1288.8168C112.33333,1288.804,127.84089,1273.4722,127.82802,1254.5654C127.83478,1254.1909,127.7885,1253.8232,127.77481,1253.4625 Z"/>
</g>
<g style="fill:rgb(60,70,79); fill-opacity:1.0; stroke-linejoin: miter">
<path d="M-117.96149,1186.6703C-98.75287,1186.6567,-83.184555,1202.3673,-83.17125,1221.7482C-83.157715,1241.1207,-98.70474,1256.8798,-117.91342,1256.8939C-137.11514,1256.8799,-152.69052,1241.168,-152.7037,1221.7952C-152.71698,1202.4144,-137.16388,1186.6831,-117.96149,1186.6703 Z"/>
</g>
<g style="fill:rgb(227,237,242); fill-opacity:0.99607843; stroke-linejoin: miter">
<path d="M225.07713,436.47452L225.0772,436.47528L225.0771,436.47464L225.07713,436.47452L225.0772,436.47528L225.07713,436.47452L225.0771,436.47464Q225.07713,436.47452,225.07713,436.47452 Z"/>
</g>
<g style="fill:rgb(255,255,255); fill-opacity:0.99607843; stroke-linejoin: miter">
<path d="M214.22124,838.4126L214.22124,838.413L214.22124,838.41376L214.22124,838.4126 Z"/>
</g>
<g>
<g style="fill:rgb(124,236,255); fill-opacity:1.0; stroke-linejoin: miter">
<path d="M144.11377,878.595C136.71188,879.2348,132.48083,886.23944,135.24706,893.2362C135.79158,894.5928,137.19781,896.2476,138.91002,897.51355L140.28781,898.5215L137.67506,897.85535C135.19633,897.19104,134.9912,897.2033,133.84586,897.8381C132.84286,898.4435,132.63333,898.7235,132.56308,899.61304C132.45877,901.13196,133.1524,902.0576,134.7648,902.6918L136.1578,903.2667L85.771614,1091.3118L35.377083,1279.3881L39.612732,1280.5238L43.848953,1281.6583L75.62935,1163.0516C93.318695,1097.0334,107.535194,1044.4784,107.69209,1044.5204C107.8176,1044.5541,108.99237,1045.4408,110.25078,1046.5178C118.03771,1052.9761,128.319,1059.1616,138.02966,1063.2095C155.97223,1070.6741,175.2879,1074.2693,204.5166,1075.5093C211.59518,1075.8254,215.47025,1075.9224,231.8855,1076.2849C248.8363,1076.6571,262.88022,1077.4607,272.3014,1078.5725C283.35028,1079.8851,286.16193,1080.4368,297.8742,1083.541C307.9149,1086.2317,309.7096,1086.8135,314.15387,1088.677C325.73422,1093.5288,333.99347,1098.6005,345.2967,1107.7498C345.54556,1107.9508,349.38095,1094.0131,364.24554,1038.5381L382.85986,969.06805L381.39026,967.9008C365.76392,955.30615,351.70428,948.41125,331.9986,943.63556C314.0586,939.29944,301.02167,938.1265,261.25275,937.18976C223.21635,936.31323,208.13991,934.594,188.96059,928.984C172.11766,924.0673,158.69847,917.0417,146.63274,906.84705C145.34299,905.76166,145.25113,905.6024,146.00415,905.8042C148.92232,906.586,151.14142,903.952,149.46172,901.6861C148.93729,901.0075,148.34332,900.714,146.27245,900.159L143.73067,899.4789L145.79237,899.1895C148.75368,898.8062,150.63817,897.7974,152.63925,895.47504C155.2921,892.3522,155.72905,887.4582,153.66164,883.87775C151.75528,880.57544,147.62532,878.29175,144.11377,878.595 Z"/>
</g>
</g>
<g>
<g style="fill:rgb(231,105,199); fill-opacity:1.0; stroke-linejoin: miter">
<path d="M427.15985,798.6463C419.75797,799.28613,415.52692,806.29095,418.29315,813.2874C418.8377,814.644,420.244,816.29865,421.9562,817.5647L423.3339,818.5728L420.7212,817.9065C418.24243,817.2421,418.03735,817.2544,416.89203,817.88904C415.88892,818.49475,415.67938,818.7751,415.60922,819.6642C415.5049,821.18317,416.19855,822.1089,417.81104,822.74286L419.20398,823.3178L368.81763,1011.3631L318.42303,1199.4391L322.65872,1200.575L326.89496,1201.7094L358.6753,1083.1025C376.36472,1017.0847,390.5813,964.52985,390.73816,964.5719C390.8637,964.6055,392.03857,965.492,393.29694,966.56903C401.08383,973.02747,411.36517,979.2125,421.07587,983.26044C439.0184,990.7252,458.33417,994.32025,487.56268,995.56067C494.6413,995.87665,498.5165,995.9736,514.93164,996.3363C531.88245,996.7081,545.9264,997.5118,555.34753,998.62366C566.3964,999.9363,569.2081,1000.4879,580.9204,1003.59265C590.9611,1006.28284,592.75574,1006.86475,597.20013,1008.7283C608.7805,1013.5801,617.03973,1018.6517,628.343,1027.8013C628.5919,1028.0024,632.42725,1014.0646,647.2919,958.5892L665.9062,889.11945L664.4366,887.9521C648.8102,875.35754,634.7505,868.4625,615.0449,863.6869C597.10486,859.35065,584.0678,858.1778,544.29895,857.2407C506.2625,856.3645,491.18607,854.64514,472.00665,849.0353C455.1637,844.11847,441.74463,837.0926,429.67883,826.898C428.38913,825.81256,428.2972,825.6535,429.0503,825.85535C431.96844,826.6372,434.18744,824.00336,432.50787,821.7371C431.98346,821.0586,431.3895,820.7651,429.31857,820.21014L426.777,819.52893L428.8385,819.2406C431.79984,818.85706,433.68423,817.84863,435.68536,815.52625C438.33823,812.40326,438.77512,807.50946,436.70776,803.9288C434.80136,800.6265,430.6714,798.34296,427.15985,798.6463 Z"/>
</g>
</g>
<g>
<g style="fill:rgb(25,162,255); fill-opacity:1.0; stroke-linejoin: miter">
<path d="M989.1323,654.59576C981.73047,655.2354,977.4994,662.2403,980.26556,669.23676C980.8101,670.59344,982.21625,672.24817,983.92847,673.51416L985.3062,674.5222L982.6936,673.8558C980.2148,673.19147,980.00977,673.20374,978.8642,673.8386C977.86145,674.44415,977.65173,674.7243,977.58167,675.6135C977.4773,677.13257,978.1709,678.05835,979.7834,678.69214L981.1762,679.2673L930.7903,867.31287L880.3956,1055.3889L884.63135,1056.5247L888.86755,1057.6587L920.6478,939.0524C938.3374,873.03455,952.5539,820.47943,952.7108,820.5215C952.83636,820.5551,954.01117,821.4417,955.2695,822.51874C963.05664,828.9771,973.3379,835.16223,983.04865,839.21014C1000.991,846.6748,1020.3068,850.26984,1049.5355,851.51013C1056.614,851.82605,1060.489,851.92285,1076.9045,852.2857C1093.8551,852.6575,1107.899,853.4612,1117.3203,854.57294C1128.3694,855.8858,1131.1809,856.43744,1142.8928,859.54205C1152.9338,862.23254,1154.7286,862.8143,1159.173,864.6777C1170.7532,869.52936,1179.0127,874.6011,1190.3157,883.7504C1190.5645,883.95166,1194.3998,870.0137,1209.2646,814.5384L1227.8789,745.06854L1226.4094,743.9014C1210.7827,731.30664,1196.7233,724.41187,1177.0175,719.6359C1159.0774,715.2997,1146.0404,714.12714,1106.2714,713.1902C1068.2351,712.31384,1053.1588,710.5945,1033.9792,704.9848C1017.1363,700.068,1003.71704,693.0422,991.6513,682.8475C990.3616,681.7621,990.2695,681.60284,991.02264,681.8047C993.9408,682.5866,996.16,679.9527,994.48016,677.6865C993.95575,677.00793,993.3619,676.71436,991.29083,676.1594L988.7493,675.4784L990.81104,675.19006C993.7723,674.80646,995.65656,673.798,997.6577,671.4757C1000.3108,668.35266,1000.7477,663.45874,998.68024,659.8782C996.7738,656.576,992.6438,654.29236,989.1323,654.59576 Z"/>
</g>
</g>
<g style="fill:rgb(255,255,255); fill-opacity:1.0; stroke-linejoin: miter">
<path d="M477.19427,885.0235L477.19427,885.02374L540.8268,898.2269C542.3083,898.53424,543.2604,899.9848,542.9531,901.46625L542.9531,901.4668L529.7494,965.09766C529.4419,966.57947,527.99133,967.53174,526.5099,967.2242L526.50977,967.22485L462.8774,954.0206C461.39587,953.71326,460.44366,952.26306,460.75128,950.781L460.75128,950.78143L473.95517,887.14984C474.26233,885.6678,475.71265,884.7161,477.19427,885.0235L477.19427,885.02374 M476.08096,890.38934L479.32047,888.26306L466.11682,951.8943L463.9911,948.65485L527.62317,961.85815L524.3837,963.9847L537.5875,900.35315L539.7136,903.59247L476.08096,890.38934 Z M477.19427,885.0235L477.19427,885.02374L540.8268,898.2269C542.3083,898.53424,543.2604,899.9848,542.9531,901.46625L542.9531,901.4668L529.7494,965.09766C529.4419,966.57947,527.99133,967.53174,526.5099,967.2242L526.50977,967.22485L462.8774,954.0206C461.39587,953.71326,460.44366,952.26306,460.75128,950.781L460.75128,950.78143L473.95517,887.14984C474.26233,885.6678,475.71265,884.7161,477.19427,885.0235L477.19427,885.02374 M476.08096,890.38934L479.32047,888.26306L466.11682,951.8943L463.9911,948.65485L527.62317,961.85815L524.3837,963.9847L537.5875,900.35315L539.7136,903.59247L476.08096,890.38934 Z M477.19427,885.0235L477.19427,885.02374L540.8268,898.2269C542.3083,898.53424,543.2604,899.9848,542.9531,901.46625L542.9531,901.4668L529.7494,965.09766C529.4419,966.57947,527.99133,967.53174,526.5099,967.2242L526.50977,967.22485L462.8774,954.0206C461.39587,953.71326,460.44366,952.26306,460.75128,950.781L460.75128,950.78143L473.95517,887.14984C474.26233,885.6678,475.71265,884.7161,477.19427,885.0235L477.19427,885.02374 M476.08096,890.38934L479.32047,888.26306L466.11682,951.8943L463.9911,948.65485L527.62317,961.85815L524.3837,963.9847L537.5875,900.35315L539.7136,903.59247L476.08096,890.38934 Z M477.19427,885.0235L477.19427,885.02374L540.8268,898.2269C542.3083,898.53424,543.2604,899.9848,542.9531,901.46625L542.9531,901.4668L529.7494,965.09766C529.4419,966.57947,527.99133,967.53174,526.5099,967.2242L526.50977,967.22485L462.8774,954.0206C461.39587,953.71326,460.44366,952.26306,460.75128,950.781L460.75128,950.78143L473.95517,887.14984C474.26233,885.6678,475.71265,884.7161,477.19427,885.0235L477.19427,885.02374 M476.08096,890.38934L479.32047,888.26306L466.11682,951.8943L463.9911,948.65485L527.62317,961.85815L524.3837,963.9847L537.5875,900.35315L539.7136,903.59247L476.08096,890.38934 Z"/>
</g>
<g style="fill:rgb(255,255,255); fill-opacity:1.0; stroke-linejoin: miter">
<path d="M521.75977,930.2546L521.75964,930.2547C519.47833,941.2501,508.71497,948.31464,497.7193,946.03314L497.71918,946.03357C486.72302,943.7512,479.65884,932.988,481.94043,921.992L481.9403,921.9925C484.22192,910.99677,494.98535,903.9323,505.9815,906.2141L505.98138,906.2144C516.97723,908.4954,524.0416,919.259,521.75977,930.2546L521.75964,930.2547 M516.3944,929.1413L516.3944,929.1417C518.0609,921.1091,512.9005,913.24615,504.86807,911.5794L504.86795,911.57983C496.8355,909.91284,488.97296,915.07306,487.3061,923.10565L487.3061,923.1062C485.63922,931.13763,490.79965,939.0006,498.83203,940.6675L498.83203,940.6675C506.8648,942.3336,514.7275,937.1738,516.3944,929.1413 Z"/>
</g>
<g style="fill:rgb(255,255,255); fill-opacity:1.0; stroke-linejoin: miter">
<path d="M529.4087,911.48193C528.9605,913.6411,526.84644,915.02783,524.68726,914.58057C522.5282,914.1323,521.14075,912.01886,521.58905,909.8593C522.03674,907.7004,524.15076,906.31287,526.30994,906.76074C528.46936,907.209,529.8565,909.32245,529.4087,911.48193 Z"/>
</g>
<g>
<g style="fill:rgb(255,0,26); fill-opacity:1.0; stroke-linejoin: miter">
<path d="M706.5259,723.0199C699.1241,723.6597,694.8929,730.66455,697.6593,737.661C698.20374,739.01764,699.61005,740.67224,701.32227,741.9383L702.70013,742.9465L700.0872,742.2801C697.6085,741.61584,697.40344,741.62805,696.25793,742.2629C695.25494,742.8684,695.04553,743.1486,694.9753,744.03784C694.871,745.55676,695.5646,746.4825,697.1771,747.1165L698.57,747.69147L648.1837,935.73694L597.7892,1123.8129L602.0249,1124.9487L606.2611,1126.083L638.0415,1007.4765C655.73096,941.45844,669.94727,888.9033,670.10425,888.9454C670.2297,888.979,671.40466,889.86566,672.66296,890.9426C680.4499,897.401,690.7314,903.5862,700.4421,907.63434C718.3846,915.09894,737.7003,918.694,766.92896,919.93427C774.0075,920.25037,777.8827,920.34717,794.298,920.71C811.24866,921.0817,825.2926,921.8854,834.7138,922.9974C845.76276,924.3102,848.57434,924.8618,860.2866,927.9663C870.3274,930.6567,872.12195,931.23846,876.5663,933.1021C888.1466,937.95374,896.40607,943.0253,907.7092,952.17474C907.95807,952.376,911.79346,938.43835,926.6581,882.9629L945.27234,813.493L943.8027,812.32574C928.17645,799.7312,914.1168,792.8363,894.41113,788.0604C876.471,783.7242,863.434,782.5515,823.66516,781.6145C785.62866,780.73816,770.5522,779.01874,751.3727,773.4087C734.52997,768.49225,721.11066,761.4662,709.045,751.2718C707.75525,750.1862,707.6633,750.0271,708.41644,750.2289C711.33453,751.0108,713.5536,748.37695,711.87396,746.1109C711.3494,745.43225,710.75555,745.1387,708.68475,744.5837L706.143,743.90265L708.2045,743.61426C711.1659,743.23083,713.0503,742.22235,715.05145,739.89996C717.70435,736.777,718.14124,731.88306,716.0739,728.30237C714.1674,725.0003,710.0374,722.7165,706.5259,723.0199 Z"/>
</g>
</g>
<g style="fill:rgb(255,255,255); fill-opacity:1.0; stroke-linejoin: miter">
<path d="M263.00052,985.3611C266.86795,984.30927,269.84277,982.1987,271.92877,979.01776C268.24478,979.7748,264.72873,980.0044,261.36865,979.71564C259.41562,975.8136,256.26154,973.198,251.93344,971.9299C247.70244,970.6902,243.6938,971.1276,239.93088,973.16125C236.17845,975.22,233.67903,978.3239,232.47015,982.44934C232.1029,983.70276,231.93304,984.86884,231.97095,985.9108C219.61815,981.82855,210.80699,973.6263,205.58878,961.27924C203.49518,963.31287,202.07803,965.5933,201.3258,968.1611C199.7792,973.43854,200.78105,978.2736,204.32701,982.64703C201.8548,981.6891,199.80785,980.3935,198.21289,978.7851C197.10858,982.5537,197.29373,986.02606,198.70091,989.4468C200.12453,992.8416,202.47212,995.4277,205.74574,997.19745C204.38531,997.1513,203.00558,996.91437,201.63432,996.5128C200.36903,996.1418,199.5033,995.7736,199.03943,995.3868C199.07286,998.7306,200.10333,1001.73755,202.08835,1004.3891C204.06271,1007.04663,206.68344,1008.91156,209.93492,1009.96094C203.28952,1012.6169,196.49637,1012.9037,189.50745,1010.8559C187.79568,1010.35425,186.58992,1009.97424,185.8939,1009.6297C191.4679,1016.11676,198.4805,1020.5809,206.95862,1023.0649C215.63542,1025.6073,223.94618,1025.6554,231.90744,1023.2134C239.86159,1020.79565,246.3671,1016.8433,251.39264,1011.418C256.4317,1006.0058,259.9409,999.863,261.96136,992.9671L262.51773,991.0689C266.2699,989.6577,269.5195,987.78174,272.26468,985.46313C269.15796,985.84357,266.06964,985.8151,263.00052,985.3611 Z"/>
</g>
<g style="fill:rgb(40,174,174); fill-opacity:1.0; stroke-linejoin: miter">
<path d="M230.02045,1188.0029L324.1092,1188.0034L418.1979,1188.004Q418.1979,1238.5417,418.1979,1289.0795Q324.10916,1289.08,230.02042,1289.0804Q230.02043,1238.5417,230.02045,1188.0029"/>
</g>
<g style="fill:rgb(40,174,174); fill-opacity:1.0; stroke-linejoin: miter">
<path d="M505.3762,1124.4938L599.46497,1124.4941L693.5537,1124.4948Q693.5537,1206.7871,693.5537,1289.0795Q599.46497,1289.08,505.3762,1289.0804Q505.3762,1206.7871,505.3762,1124.4938"/>
</g>
<g style="fill:rgb(40,174,174); fill-opacity:1.0; stroke-linejoin: miter">
<path d="M769.6342,1049.905L863.72296,1049.9055L957.8117,1049.9061Q957.8117,1169.4928,957.8117,1289.0796Q863.72296,1289.08,769.6342,1289.0806Q769.6342,1169.4928,769.6342,1049.905"/>
</g>
<g style="fill:rgb(40,174,174); fill-opacity:1.0; stroke-linejoin: miter">
<path d="M-18.760193,1240.413L75.328545,1240.4133L169.41728,1240.4138Q169.41728,1263.2528,169.41728,1286.0917Q75.328545,1286.0922,-18.760193,1286.0927Q-18.760193,1263.2527,-18.760193,1240.413"/>
</g>
<g style="fill:rgb(255,255,255); fill-opacity:1.0; stroke-linejoin: miter">
<path d="M1068.2361,823.584L1076.8643,780.8893L1089.4934,783.4413L1094.1401,769.0662L1079.8372,766.17615L1081.3467,758.81647C1082.1223,754.9793,1082.9287,753.00195,1088.8345,754.19556L1096.7301,755.79126L1099.7034,741.07635L1087.0723,738.5238C1071.9006,735.4579,1065.1179,741.5162,1062.6921,753.51874L1060.9072,762.35223L1051.45,760.44135L1048.4766,775.15436L1057.9341,777.0655L1049.3064,819.7587L1068.2361,823.584 Z"/>
</g>
<g style="fill:rgb(255,255,255); fill-opacity:1.0; stroke-linejoin: miter">
<path d="M789.6442,829.15607L807.48975,847.0243L783.0925,853.5457L789.6442,829.15607 Z M814.2149,822.47845C809.466,821.05914,804.67145,819.7708,799.8868,818.4881C790.3508,815.921,780.7708,813.35297,771.02264,811.868C766.9079,811.2402,762.78455,813.3426,760.7603,817.151C757.879,822.5756,756.1684,828.88043,754.5694,834.8327C752.97076,840.7834,751.27594,847.09186,751.05206,853.2302C750.8947,857.5402,753.4093,861.4248,757.2855,862.94415C761.8601,864.73846,766.5334,866.2787,771.2517,867.68866C776.00116,869.1084,780.796,870.3961,785.5809,871.6783C795.11664,874.2457,804.69635,876.8133,814.44415,878.29767C818.5592,878.92474,822.6835,876.82336,824.7078,873.0152C827.58887,867.5908,829.29126,861.2851,830.8898,855.3339C832.4884,849.3822,834.1913,843.0754,834.4155,836.93726C834.57263,832.6274,832.0568,828.74164,828.18066,827.2228C823.6065,825.4289,818.9331,823.88855,814.2149,822.47845 Z"/>
</g>
<g style="fill:rgb(255,0,0); fill-opacity:1.0; stroke-linejoin: miter">
<path d="M789.70197,828.94086C789.6651,828.93097,789.62524,828.9307,789.587,828.94086C789.50995,828.9613,789.44995,829.0215,789.4293,829.0985L782.87756,853.48773C782.8623,853.5451,782.8703,853.6058,782.8995,853.657L782.89856,853.6574C782.9272,853.7066,782.9748,853.7454,783.03467,853.7615C783.0742,853.77203,783.1145,853.7713,783.1514,853.76117L783.14954,853.76166L807.5472,847.23944C807.6241,847.2191,807.6839,847.159,807.7045,847.08246C807.7254,847.00574,807.70325,846.9232,807.6471,846.86755L789.8017,828.99866C789.77374,828.97034,789.73926,828.95087,789.70197,828.94086 Z"/>
</g>
<g style="fill:rgb(22,83,83); fill-opacity:1.0; stroke-linejoin: miter">
<path d="M765.6924,1048.8777L782.3345,1048.8783L798.97644,1048.8789Q798.97644,1171.2058,798.97644,1293.5327Q782.3345,1293.5333,765.6924,1293.5337Q765.6924,1171.2058,765.6924,1048.8777"/>
</g>
<g style="fill:rgb(22,83,83); fill-opacity:1.0; stroke-linejoin: miter">
<path d="M501.36264,1124.0671L518.00464,1124.0677L534.6467,1124.0684Q534.6467,1206.6221,534.6467,1289.176Q518.00464,1289.1766,501.36264,1289.177Q501.36264,1206.6221,501.36264,1124.0671"/>
</g>
<g style="fill:rgb(22,83,83); fill-opacity:1.0; stroke-linejoin: miter">
<path d="M227.14526,1187.64L243.7873,1187.6406L260.42932,1187.641Q260.42932,1238.6365,260.42932,1289.6318Q243.7873,1289.6324,227.14526,1289.633Q227.14526,1238.6365,227.14526,1187.64"/>
</g>
<g style="fill:rgb(22,83,83); fill-opacity:1.0; stroke-linejoin: miter">
<path d="M-45.11302,589.97876L-45.113007,589.97906L-45.11299,589.9794L-45.113007,589.97906L-45.11302,589.97876L-45.113007,589.97906L-45.11299,589.9794Q-45.113007,589.97906,-45.11302,589.97876"/>
</g>
<g style="fill:rgb(22,83,83); fill-opacity:1.0; stroke-linejoin: miter">
<path d="M-45.11302,589.97876L-45.113007,589.97906L-45.11299,589.9794L-45.113007,589.97906L-45.11302,589.97876L-45.113007,589.97906L-45.11299,589.9794Q-45.113007,589.97906,-45.11302,589.97876"/>
</g>
<g style="fill:rgb(22,83,83); fill-opacity:1.0; stroke-linejoin: miter">
<path d="M-22.219055,1239.5555L-5.5770264,1239.5562L11.065018,1239.5566Q11.065018,1263.1681,11.065018,1286.7795Q-5.5770264,1286.78,-22.219055,1286.7805Q-22.219055,1263.1681,-22.219055,1239.5555"/>
</g>
</g>
<g id="layer3">
<g style="fill:rgb(255,0,0); fill-opacity:0.99607843; stroke-linejoin: miter">
<path d="M66.09375,782.80994L65.91113,787.2386Q64.61365,800.6223,58.3183,808.64624Q51.97931,816.6639,43.38916,815.1486Q35.19098,813.0303,30.275696,802.75323Q28.700867,799.4311,27.681244,795.5135L26.82434,791.4861Q26.118134,787.32904,26.11023,782.80994Q26.324585,768.94147,31.965607,759.73267Q37.60675,750.5235,46.10193,750.1734Q54.597168,750.5235,60.23828,759.73267Q65.87927,768.94147,66.09375,782.80994"/>
</g>
<g style="fill:rgb(83,93,102); fill-opacity:1.0; stroke-linejoin: miter">
<path d="M40.243896,742.43884L40.243896,687.2442L27.272491,687.24493L27.27243,698.5948C-10.771576,735.6718,-48.320953,742.1891,-70.01428,742.20184L-70.014435,824.45087C-48.406525,823.8933,-10.798035,829.5543,27.27243,866.7073L27.27243,878.05725L40.243896,878.0579L40.243835,822.8621C59.70166,819.81433,74.55383,802.95184,74.55383,782.651C74.55438,762.3494,59.701782,745.4871,40.243896,742.43884 Z M40.243835,809.69604L40.243896,755.5412C52.501953,758.5235,61.582336,769.55005,61.582336,782.6513C61.582336,795.7523,52.502502,806.77795,40.243835,809.69604 Z"/>
</g>
<g style="fill:rgb(34,43,50); fill-opacity:1.0; stroke-linejoin: miter">
<path d="M-92.600586,738.1341L-75.02231,738.1342L-57.444,738.13446Q-57.444,782.5728,-57.444,827.0111Q-75.02231,827.0111,-92.600586,827.0113Q-92.600586,782.5728,-92.600586,738.1341"/>
</g>
<g style="fill:rgb(0,0,0); fill-opacity:1.0; stroke-linejoin: miter">
<path d="M-134.96677,894.1224L-114.247406,894.1225L-93.528015,894.123Q-93.528015,918.31824,-93.528015,942.5135Q-114.247406,942.5137,-134.96677,942.5137Q-134.96677,918.31824,-134.96677,894.1224"/>
</g>
<g style="fill:rgb(34,43,50); fill-opacity:1.0; stroke-linejoin: miter">
<path d="M-83.11557,871.5711C-95.503265,851.27167,-97.51367,837.7803,-96.800354,827.46704L-82.98572,827.4674L-82.98572,736.66583L-141.35815,736.66675C-166.39304,736.66614,-186.75845,757.0321,-186.75858,782.0665C-186.75858,804.7672,-170.02524,823.57587,-148.2331,826.88464L-128.19183,893.6867C-126.246,900.239,-121.83588,905.55505,-115.80405,908.73346C-112.10739,910.7447,-108.02136,911.78174,-103.87012,911.782C-101.405365,911.782,-98.875824,911.3923,-96.41159,910.6801C-88.953094,908.3456,-83.310455,903.1571,-80.521545,895.9574C-77.60272,888.1745,-78.51105,879.0303,-83.11557,871.5711 Z"/>
</g>
<g style="fill:rgb(255,177,133); fill-opacity:1.0; stroke-linejoin: miter">
<path d="M-85.81125,854.0772L-84.83612,854.9823Q-76.89508,862.19965,-76.81259,866.474Q-76.33359,871.2168,-79.844604,878.787Q-77.09311,890.6435,-78.966,897.37476Q-80.36554,901.62866,-83.7673,904.86786Q-85.82483,907.2234,-94.26233,912.9531Q-98.21283,919.1278,-100.69992,921.0868Q-103.598694,923.438,-105.57214,924.1025Q-116.12796,927.88226,-134.21469,921.3894Q-152.85626,915.2914,-191.69748,897.44543L-190.68369,839.6222L-162.19498,839.66327L-149.74686,826.2253Q-128.21048,831.93274,-121.10715,831.5144Q-117.43503,831.4119,-114.56189,830.6005Q-101.77734,826.0262,-102.20743,826.5262Q-96.84833,825.5789,-94.6196,826.0585Q-88.37012,826.55896,-86.161865,832.7412Q-84.27234,836.9643,-85.81125,854.0772"/>
</g>
<g style="fill:rgb(255,190,133); fill-opacity:0.99607843; stroke-linejoin: miter">
<path d="M-75.496826,812.4151L-75.496826,812.4158L-75.49686,812.4159L-75.496826,812.4151"/>
</g>
<g style="fill:rgb(255,255,255); fill-opacity:1.0; stroke-linejoin: miter">
<path d="M-213.33893,839.68835L-193.88571,839.68866L-174.4325,839.68896Q-174.4325,876.80835,-174.4325,913.92804Q-193.88571,913.9284,-213.33893,913.9287Q-213.33893,876.80835,-213.33893,839.68835"/>
</g>
<g style="fill:rgb(0,0,0); fill-opacity:1.0; stroke-linejoin: miter">
<path d="M-363.79895,831.2952L-280.58972,831.2952L-197.38025,831.29553Q-197.38025,880.7219,-197.38025,930.1485Q-280.58972,930.1485,-363.79895,930.14874Q-363.79895,880.7219,-363.79895,831.2952"/>
</g>
<g style="fill:rgb(0,0,0); fill-opacity:1.0; stroke-linejoin: miter">
<path d="M29.867188,687.118L33.024445,687.11816L36.181824,687.1183Q36.181824,782.70087,36.181824,878.2835Q33.024445,878.2838,29.867188,878.284Q29.867188,782.70087,29.867188,687.118"/>
</g>
<g style="fill:rgb(0,0,0); fill-opacity:1.0; stroke-linejoin: miter">
<path d="M38.997375,742.35004L39.700867,822.8559Q48.244507,822.42957,55.519165,818.7948Q63.401794,814.53076,67.5838,809.5776Q72.18994,804.47394,74.79236,798.0789Q76.093445,794.88135,76.89368,791.3611L77.568665,787.7599L77.88922,782.282Q77.63031,774.66406,75.21802,768.20276Q74.01196,764.97205,72.26758,762.03033L70.38849,759.1612Q68.37488,756.3642,65.822815,753.85626Q59.56311,748.34686,58.010315,747.8294Q55.218018,746.18555,52.17511,745.029Q46.090515,742.71545,38.997375,742.35004 Z"/>
</g>
<g style="fill:rgb(0,0,0); fill-opacity:1.0; stroke-linejoin: miter">
<path d="M-143.60547,735.75055L-144.41537,828.4343Q-154.25146,827.9434,-162.62653,823.759Q-171.7016,818.85,-176.51624,813.1474Q-181.81906,807.27167,-184.81519,799.90924Q-186.31308,796.2281,-187.2344,792.17523L-188.0116,788.02966L-188.3804,781.72284Q-188.08252,772.95233,-185.3053,765.51373Q-183.91675,761.79425,-181.90842,758.40784L-179.74518,755.1044Q-177.42685,751.8843,-174.48886,748.9972Q-167.28226,742.6545,-165.49457,742.05853Q-162.27979,740.1664,-158.77658,738.8347Q-151.77155,736.171,-143.60547,735.75055 Z"/>
</g>
</g>
</svg>