<svg xmlns="http://www.w3.org/2000/svg" xmlns:xlink="http://www.w3.org/1999/xlink" width="500" zoomAndPan="magnify" viewBox="0 0 375 374.999991" height="500" preserveAspectRatio="xMidYMid meet" version="1.0"><defs><g/><clipPath id="22394eb6a1"><path d="M 50.183594 53.558594 L 324.683594 53.558594 L 324.683594 136 L 50.183594 136 Z M 50.183594 53.558594 " clip-rule="nonzero"/></clipPath></defs><g clip-path="url(#22394eb6a1)"><path fill="#0d6efd" d="M 308.328125 53.601562 L 66.539062 53.601562 C 57.597656 53.601562 50.320312 60.871094 50.320312 69.8125 L 50.320312 119.445312 C 50.320312 128.386719 57.597656 135.660156 66.539062 135.660156 L 242.652344 135.660156 C 239.714844 134.824219 236.785156 133.992188 233.855469 133.148438 C 230.765625 132.253906 228.410156 130.074219 227.382812 127.179688 C 227.1875 126.636719 227.050781 126.082031 226.960938 125.53125 L 66.539062 125.53125 C 63.191406 125.53125 60.457031 122.789062 60.457031 119.445312 L 60.457031 69.8125 C 60.457031 66.46875 63.191406 63.726562 66.539062 63.726562 L 308.328125 63.726562 C 311.675781 63.726562 314.410156 66.46875 314.410156 69.8125 L 314.410156 119.445312 C 314.410156 122.789062 311.675781 125.53125 308.328125 125.53125 L 296.25 125.53125 L 293.679688 134.894531 C 293.609375 135.144531 293.539062 135.402344 293.46875 135.660156 L 308.328125 135.660156 C 317.269531 135.660156 324.546875 128.386719 324.546875 119.445312 L 324.546875 69.8125 C 324.546875 60.871094 317.269531 53.601562 308.328125 53.601562 " fill-opacity="1" fill-rule="nonzero"/></g><path fill="#0d6efd" d="M 265.210938 142.121094 C 265.652344 142.914062 266.074219 143.574219 266.414062 144.28125 C 268.78125 149.105469 271.132812 153.941406 273.503906 158.761719 C 274.617188 161.023438 277.175781 161.554688 279.140625 159.941406 C 280.292969 159.003906 281.039062 157.804688 281.433594 156.359375 C 284.578125 144.839844 287.75 133.332031 290.90625 121.816406 C 292.839844 114.757812 294.757812 107.691406 296.710938 100.632812 C 297.164062 99.007812 297.152344 97.453125 296.515625 95.867188 C 295.5625 93.472656 292.929688 93.203125 290.878906 93.71875 C 289.5 94.066406 288.191406 94.738281 286.890625 95.355469 C 270.332031 103.238281 253.785156 111.140625 237.226562 119.019531 C 235.820312 119.6875 234.625 120.535156 233.730469 121.820312 C 232.234375 123.96875 233.054688 126.53125 235.570312 127.253906 C 241.144531 128.875 246.742188 130.433594 252.324219 132.027344 C 252.726562 132.140625 253.113281 132.335938 253.609375 132.539062 C 251.429688 135.183594 249.3125 137.746094 247.199219 140.300781 C 245.75 142.058594 244.265625 143.785156 242.859375 145.578125 C 241.042969 147.882812 240.523438 150.457031 241.699219 153.195312 C 242.890625 155.957031 245.046875 157.515625 248.046875 157.75 C 250.699219 157.949219 252.820312 156.847656 254.511719 154.847656 C 257.8125 150.917969 261.109375 146.980469 264.402344 143.054688 C 264.628906 142.777344 264.871094 142.511719 265.210938 142.121094 " fill-opacity="1" fill-rule="nonzero"/><path fill="#0d6efd" d="M 106.160156 81.023438 L 108.800781 81.023438 L 108.800781 90.074219 L 108.859375 90.074219 C 109.28125 89.324219 109.941406 88.667969 110.75 88.214844 C 111.53125 87.769531 112.457031 87.464844 113.445312 87.464844 C 115.398438 87.464844 118.519531 88.667969 118.519531 93.667969 L 118.519531 102.300781 L 115.878906 102.300781 L 115.878906 93.972656 C 115.878906 91.636719 115.007812 89.65625 112.519531 89.65625 C 110.8125 89.65625 109.457031 90.855469 108.976562 92.289062 C 108.832031 92.648438 108.800781 93.039062 108.800781 93.550781 L 108.800781 102.300781 L 106.160156 102.300781 L 106.160156 81.023438 " fill-opacity="1" fill-rule="nonzero"/><path fill="#0d6efd" d="M 125.859375 83.632812 L 125.859375 87.800781 L 129.640625 87.800781 L 129.640625 89.800781 L 125.859375 89.800781 L 125.859375 97.621094 C 125.859375 99.425781 126.371094 100.445312 127.835938 100.445312 C 128.53125 100.445312 129.035156 100.347656 129.367188 100.261719 L 129.488281 102.238281 C 128.976562 102.445312 128.171875 102.597656 127.152344 102.597656 C 125.921875 102.597656 124.933594 102.207031 124.300781 101.488281 C 123.550781 100.707031 123.28125 99.425781 123.28125 97.71875 L 123.28125 89.800781 L 121.03125 89.800781 L 121.03125 87.800781 L 123.28125 87.800781 L 123.28125 84.324219 L 125.859375 83.632812 " fill-opacity="1" fill-rule="nonzero"/><path fill="#0d6efd" d="M 135.78125 83.632812 L 135.78125 87.800781 L 139.5625 87.800781 L 139.5625 89.800781 L 135.78125 89.800781 L 135.78125 97.621094 C 135.78125 99.425781 136.292969 100.445312 137.761719 100.445312 C 138.453125 100.445312 138.957031 100.347656 139.292969 100.261719 L 139.414062 102.238281 C 138.902344 102.445312 138.089844 102.597656 137.074219 102.597656 C 135.847656 102.597656 134.855469 102.207031 134.226562 101.488281 C 133.476562 100.707031 133.207031 99.425781 133.207031 97.71875 L 133.207031 89.800781 L 130.957031 89.800781 L 130.957031 87.800781 L 133.207031 87.800781 L 133.207031 84.324219 L 135.78125 83.632812 " fill-opacity="1" fill-rule="nonzero"/><path fill="#0d6efd" d="M 145.132812 96.394531 C 145.132812 96.785156 145.195312 97.144531 145.253906 97.472656 C 145.738281 99.304688 147.328125 100.5625 149.210938 100.5625 C 152.003906 100.5625 153.621094 98.285156 153.621094 94.960938 C 153.621094 92.050781 152.089844 89.5625 149.304688 89.5625 C 147.503906 89.5625 145.828125 90.855469 145.316406 92.832031 C 145.230469 93.160156 145.132812 93.550781 145.132812 93.90625 Z M 142.527344 92.535156 C 142.527344 90.671875 142.46875 89.179688 142.40625 87.800781 L 144.773438 87.800781 L 144.894531 90.28125 L 144.957031 90.28125 C 146.035156 88.519531 147.742188 87.464844 150.113281 87.464844 C 153.621094 87.464844 156.261719 90.433594 156.261719 94.839844 C 156.261719 100.054688 153.078125 102.628906 149.664062 102.628906 C 147.742188 102.628906 146.066406 101.792969 145.195312 100.347656 L 145.132812 100.347656 L 145.132812 108.234375 L 142.527344 108.234375 L 142.527344 92.535156 " fill-opacity="1" fill-rule="nonzero"/><path fill="#0d6efd" d="M 159.230469 99.601562 C 160.003906 100.109375 161.386719 100.652344 162.707031 100.652344 C 164.625 100.652344 165.523438 99.695312 165.523438 98.492188 C 165.523438 97.238281 164.773438 96.546875 162.828125 95.828125 C 160.21875 94.898438 158.984375 93.460938 158.984375 91.722656 C 158.984375 89.386719 160.875 87.464844 163.992188 87.464844 C 165.460938 87.464844 166.753906 87.886719 167.558594 88.367188 L 166.90625 90.28125 C 166.332031 89.921875 165.285156 89.445312 163.9375 89.445312 C 162.375 89.445312 161.503906 90.34375 161.503906 91.421875 C 161.503906 92.625 162.375 93.160156 164.265625 93.882812 C 166.785156 94.839844 168.070312 96.097656 168.070312 98.253906 C 168.070312 100.804688 166.09375 102.597656 162.644531 102.597656 C 161.058594 102.597656 159.589844 102.207031 158.566406 101.609375 L 159.230469 99.601562 " fill-opacity="1" fill-rule="nonzero"/><path fill="#0d6efd" d="M 169.242188 103.496094 L 177.605469 81.773438 L 179.644531 81.773438 L 171.253906 103.496094 L 169.242188 103.496094 " fill-opacity="1" fill-rule="nonzero"/><path fill="#308cf8" d="M 179.527344 103.496094 L 187.886719 81.773438 L 189.929688 81.773438 L 181.53125 103.496094 L 179.527344 103.496094 " fill-opacity="1" fill-rule="nonzero"/><path fill="#0d6efd" d="M 193.074219 87.800781 L 194.996094 95.167969 C 195.410156 96.785156 195.800781 98.285156 196.074219 99.78125 L 196.160156 99.78125 C 196.496094 98.316406 196.972656 96.753906 197.453125 95.199219 L 199.820312 87.800781 L 202.039062 87.800781 L 204.289062 95.046875 C 204.824219 96.785156 205.246094 98.316406 205.574219 99.78125 L 205.667969 99.78125 C 205.910156 98.316406 206.300781 96.785156 206.777344 95.078125 L 208.84375 87.800781 L 211.453125 87.800781 L 206.777344 102.300781 L 204.378906 102.300781 L 202.160156 95.382812 C 201.648438 93.761719 201.234375 92.320312 200.867188 90.613281 L 200.8125 90.613281 C 200.453125 92.351562 200 93.851562 199.496094 95.40625 L 197.152344 102.300781 L 194.757812 102.300781 L 190.375 87.800781 L 193.074219 87.800781 " fill-opacity="1" fill-rule="nonzero"/><path fill="#0d6efd" d="M 215.5 87.800781 L 217.421875 95.167969 C 217.835938 96.785156 218.226562 98.285156 218.5 99.78125 L 218.585938 99.78125 C 218.921875 98.316406 219.398438 96.753906 219.878906 95.199219 L 222.25 87.800781 L 224.464844 87.800781 L 226.714844 95.046875 C 227.25 96.785156 227.671875 98.316406 228 99.78125 L 228.097656 99.78125 C 228.335938 98.316406 228.726562 96.785156 229.203125 95.078125 L 231.273438 87.800781 L 233.878906 87.800781 L 229.203125 102.300781 L 226.804688 102.300781 L 224.585938 95.382812 C 224.074219 93.761719 223.652344 92.320312 223.292969 90.613281 L 223.238281 90.613281 C 222.878906 92.351562 222.425781 93.851562 221.921875 95.40625 L 219.578125 102.300781 L 217.183594 102.300781 L 212.800781 87.800781 L 215.5 87.800781 " fill-opacity="1" fill-rule="nonzero"/><path fill="#0d6efd" d="M 237.925781 87.800781 L 239.839844 95.167969 C 240.261719 96.785156 240.652344 98.285156 240.925781 99.78125 L 241.011719 99.78125 C 241.347656 98.316406 241.824219 96.753906 242.304688 95.199219 L 244.675781 87.800781 L 246.890625 87.800781 L 249.140625 95.046875 C 249.675781 96.785156 250.097656 98.316406 250.425781 99.78125 L 250.515625 99.78125 C 250.761719 98.316406 251.144531 96.785156 251.628906 95.078125 L 253.699219 87.800781 L 256.304688 87.800781 L 251.628906 102.300781 L 249.230469 102.300781 L 247.011719 95.382812 C 246.5 93.761719 246.078125 92.320312 245.71875 90.613281 L 245.664062 90.613281 C 245.296875 92.351562 244.851562 93.851562 244.339844 95.40625 L 242.003906 102.300781 L 239.609375 102.300781 L 235.230469 87.800781 L 237.925781 87.800781 " fill-opacity="1" fill-rule="nonzero"/><path fill="#0d6efd" d="M 257.144531 100.738281 C 257.144531 99.632812 257.894531 98.851562 258.941406 98.851562 C 259.992188 98.851562 260.710938 99.632812 260.710938 100.738281 C 260.710938 101.824219 260.023438 102.628906 258.914062 102.628906 C 257.863281 102.628906 257.144531 101.824219 257.144531 100.738281 " fill-opacity="1" fill-rule="nonzero"/><path fill="#0d6efd" d="M 83.113281 80.433594 C 86.414062 79.808594 89.789062 82.144531 90.363281 85.457031 C 90.433594 85.867188 90.464844 86.289062 90.472656 86.703125 C 90.488281 87.710938 90.476562 88.714844 90.476562 89.746094 C 86.269531 89.746094 82.101562 89.746094 77.898438 89.746094 C 77.898438 89.65625 77.886719 89.5625 77.886719 89.476562 C 77.886719 88.554688 77.886719 87.628906 77.886719 86.710938 C 77.898438 83.570312 80.015625 81.019531 83.113281 80.433594 Z M 98.605469 90.796875 C 98.605469 90.753906 98.605469 90.710938 98.601562 90.671875 C 98.582031 90.105469 98.222656 89.757812 97.648438 89.753906 C 97.035156 89.753906 96.417969 89.753906 95.800781 89.753906 C 95.683594 89.753906 95.554688 89.753906 95.410156 89.753906 C 95.410156 89.625 95.410156 89.53125 95.410156 89.4375 C 95.410156 88.519531 95.40625 87.59375 95.410156 86.671875 C 95.410156 84.542969 94.902344 82.550781 93.734375 80.773438 C 91.132812 76.800781 87.433594 75.023438 82.703125 75.523438 C 80.453125 75.761719 78.472656 76.707031 76.785156 78.210938 C 74.429688 80.3125 73.136719 82.945312 72.980469 86.105469 C 72.929688 87.207031 72.960938 88.308594 72.953125 89.414062 C 72.953125 89.511719 72.953125 89.613281 72.953125 89.753906 C 72.210938 89.753906 71.503906 89.753906 70.792969 89.753906 C 70.113281 89.753906 69.757812 90.09375 69.757812 90.773438 C 69.757812 97.347656 69.757812 103.925781 69.773438 110.5 C 69.773438 110.902344 69.855469 111.324219 69.984375 111.703125 C 70.445312 113 71.675781 113.8125 73.105469 113.816406 C 75.230469 113.816406 77.347656 113.816406 79.464844 113.816406 C 84.722656 113.816406 89.980469 113.816406 95.234375 113.816406 C 96.445312 113.816406 97.394531 113.328125 98.078125 112.320312 C 98.472656 111.734375 98.605469 111.074219 98.605469 110.375 C 98.601562 103.851562 98.605469 97.320312 98.605469 90.796875 " fill-opacity="1" fill-rule="nonzero"/></svg>