<?xml version='1.0' encoding='utf-8'?>
<svg xmlns:xlink="http://www.w3.org/1999/xlink" xmlns="http://www.w3.org/2000/svg" x="47110pt" y="-460pt" width="1600pt" height="1000pt" viewBox="47110 -460 1600 1000"> <g id="1"> <title>Layer 1</title> <defs> <title>Shape 645</title> <g id="2"> <defs> <path id="3" d="M48474.3,-374.747 C48098.3,-374.747,47722.3,-374.747,47346.3,-374.747 C47306.4,-374.677,47274.3,-342.587,47274.3,-302.747 C47274.3,-103.748,47274.3,95.2523,47274.3,294.252 C47274.3,334.091,47306.4,366.182,47346.3,366.252 C47722.3,366.252,48098.3,366.252,48474.3,366.252 C48514.1,366.182,48546.2,334.091,48546.3,294.252 C48546.3,294.252,48546.3,-302.747,48546.3,-302.747 C48546.2,-342.587,48514.1,-374.677,48474.3,-374.747 z M47910.3,-331.469 C47907.5,-331.469,47905.3,-333.707,47905.3,-336.469 C47905.3,-339.23,47907.5,-341.469,47910.3,-341.469 C47913,-341.469,47915.3,-339.23,47915.3,-336.469 C47915.3,-333.707,47913,-331.469,47910.3,-331.469 z M47346.3,-326.747 C47333.1,-326.818,47322.2,-315.928,47322.3,-302.747 C47322.3,-302.747,47322.3,294.252,47322.3,294.252 C47322.2,307.432,47333.1,318.323,47346.3,318.252 C47346.3,318.252,48474.3,318.252,48474.3,318.252 C48487.5,318.323,48498.3,307.432,48498.3,294.252 C48498.3,294.252,48498.3,-302.747,48498.3,-302.747 C48498.3,-315.928,48487.5,-326.818,48474.3,-326.747 C48474.3,-326.747,48047,-326.747,48047,-326.747 C48047,-326.747,48047,-315.035,48047,-315.035 C48047,-305.094,48039,-297.035,48029,-297.035 C48029,-297.035,47791.5,-297.035,47791.5,-297.035 C47781.6,-297.035,47773.5,-305.094,47773.5,-315.035 C47773.5,-315.035,47773.5,-326.747,47773.5,-326.747 C47773.5,-326.747,47346.3,-326.747,47346.3,-326.747 z M47274.3,431.752 C47274.3,445.007,47285,455.752,47298.3,455.752 C47298.3,455.752,48522.3,455.752,48522.3,455.752 C48535.5,455.752,48546.3,445.007,48546.3,431.752 C48546.3,418.497,48535.5,407.752,48522.3,407.752 C48522.3,407.752,48074.5,407.752,48074.5,407.752 C48074.1,408.375,48073.6,408.959,48073,409.494 C48071,411.58,48068.1,412.752,48065.2,412.752 C48065.2,412.752,47755.4,412.752,47755.4,412.752 C47752.4,412.752,47749.6,411.58,47747.5,409.494 C47747,408.959,47746.5,408.375,47746.1,407.752 C47746.1,407.752,47298.3,407.752,47298.3,407.752 C47285,407.752,47274.3,418.497,47274.3,431.752 z M47593.5,140 C47582.4,140,47573.5,131.046,47573.5,120 C47573.5,120,47573.5,-40,47573.5,-40 C47573.5,-51.0457,47582.4,-60,47593.5,-60 C47593.5,-60,48226.5,-60,48226.5,-60 C48237.6,-60,48246.5,-51.0457,48246.5,-40 C48246.5,-40,48246.5,120,48246.5,120 C48246.5,131.046,48237.6,140,48226.5,140 C48226.5,140,47593.5,140,47593.5,140 z M47885,42.4399 C47885,42.4399,47903.3,46.8334,47903.3,46.8334 C47911.4,48.7541,47917.4,51.323,47921.5,54.5402 C47927.8,59.534,47931,66.7606,47931,76.2199 C47931,85.9194,47927.3,93.9743,47919.9,100.385 C47912.4,106.795,47902,110,47888.4,110 C47874.6,110,47863.7,106.843,47855.8,100.529 C47847.9,94.2144,47843.9,85.5352,47843.9,74.4913 C47843.9,74.4913,47865.1,74.4913,47865.1,74.4913 C47865.8,79.3411,47867.1,82.9664,47869.1,85.3672 C47872.7,89.7367,47878.8,91.9215,47887.6,91.9215 C47892.8,91.9215,47897.1,91.3454,47900.3,90.193 C47906.5,87.9841,47909.6,83.8787,47909.6,77.8765 C47909.6,74.3713,47908.1,71.6583,47905,69.7376 C47901.9,67.8649,47897.1,66.2084,47890.5,64.7678 C47890.5,64.7678,47879.3,62.247,47879.3,62.247 C47868.2,59.75,47860.6,57.0371,47856.4,54.108 C47849.2,49.2103,47845.6,41.5516,47845.6,31.1318 C47845.6,21.6244,47849.1,13.7256,47856,7.43538 C47862.9,1.14513,47873.1,-2.00001,47886.5,-2.00001 C47897.7,-2.00001,47907.2,0.965066,47915.1,6.89516 C47923,12.8253,47927.2,21.4324,47927.5,32.7164 C47927.5,32.7164,47906.2,32.7164,47906.2,32.7164 C47905.8,26.3301,47903.1,21.7925,47897.9,19.1035 C47894.4,17.3269,47890.1,16.4386,47885,16.4386 C47879.3,16.4386,47874.7,17.591,47871.3,19.8958 C47867.9,22.2006,47866.2,25.4178,47866.2,29.5473 C47866.2,33.3406,47867.9,36.1736,47871.2,38.0463 C47873.4,39.2948,47878,40.7593,47885,42.4399 z M47983.4,42.4399 C47983.4,42.4399,48001.7,46.8334,48001.7,46.8334 C48009.7,48.7541,48015.8,51.323,48019.9,54.5402 C48026.2,59.534,48029.4,66.7606,48029.4,76.2199 C48029.4,85.9194,48025.7,93.9743,48018.3,100.385 C48010.8,106.795,48000.4,110,47986.8,110 C47973,110,47962.1,106.843,47954.2,100.529 C47946.3,94.2144,47942.3,85.5352,47942.3,74.4913 C47942.3,74.4913,47963.5,74.4913,47963.5,74.4913 C47964.2,79.3411,47965.5,82.9664,47967.4,85.3672 C47971,89.7367,47977.2,91.9215,47986,91.9215 C47991.2,91.9215,47995.4,91.3454,47998.7,90.193 C48004.9,87.9841,48008,83.8787,48008,77.8765 C48008,74.3713,48006.5,71.6583,48003.4,69.7376 C48000.3,67.8649,47995.5,66.2084,47988.9,64.7678 C47988.9,64.7678,47977.7,62.247,47977.7,62.247 C47966.6,59.75,47959,57.0371,47954.8,54.108 C47947.6,49.2103,47944,41.5516,47944,31.1318 C47944,21.6244,47947.5,13.7256,47954.4,7.43538 C47961.3,1.14513,47971.5,-2.00001,47984.9,-2.00001 C47996.1,-2.00001,48005.6,0.965066,48013.5,6.89516 C48021.4,12.8253,48025.5,21.4324,48025.9,32.7164 C48025.9,32.7164,48004.6,32.7164,48004.6,32.7164 C48004.2,26.3301,48001.4,21.7925,47996.3,19.1035 C47992.8,17.3269,47988.5,16.4386,47983.4,16.4386 C47977.6,16.4386,47973.1,17.591,47969.7,19.8958 C47966.3,22.2006,47964.6,25.4178,47964.6,29.5473 C47964.6,33.3406,47966.2,36.1736,47969.6,38.0463 C47971.8,39.2948,47976.4,40.7593,47983.4,42.4399 z M48068,1.09711 C48068,1.09711,48068,88.1762,48068,88.1762 C48068,88.1762,48120.6,88.1762,48120.6,88.1762 C48120.6,88.1762,48120.6,107.263,48120.6,107.263 C48120.6,107.263,48045.8,107.263,48045.8,107.263 C48045.8,107.263,48045.8,1.09711,48045.8,1.09711 C48045.8,1.09711,48068,1.09711,48068,1.09711 z M47699.4,40.4725 C47699.4,40.4725,47699.4,103.546,47699.4,103.546 C47699.4,105.269,47700.1,106.768,47701.3,108.029 C47702.9,109.619,47705.3,110,47707.5,110 C47707.5,110,47796,110,47796,110 C47798.2,110,47800.6,109.635,47802.3,108.109 C47804.1,106.597,47804.4,104.735,47804.4,102.364 C47804.4,102.364,47804.4,40.6417,47804.4,40.6417 C47804.4,38.1048,47803.3,36.1533,47802.1,35.0613 C47801.2,34.1709,47799.3,33.0038,47796,33.0038 C47796,33.0038,47790.4,33.0038,47790.4,33.0038 C47790.4,33.0038,47790.4,7.86156,47790.4,7.86156 C47790.4,-2.31922,47788.1,-11.5456,47780.3,-18.8648 C47772.4,-26.1832,47763,-30,47752,-30 C47752,-30,47751.7,-30,47751.7,-30 C47740.4,-30,47731,-26.1789,47723.2,-18.8648 C47715.3,-11.5456,47713.3,-2.31922,47713.3,7.86156 C47713.3,7.86156,47713.3,33.0038,47713.3,33.0038 C47713.3,33.0038,47707.5,33.0038,47707.5,33.0038 C47705.3,33.0038,47703.2,33.4857,47701.6,35.0767 C47700.4,36.3378,47699.4,38.0228,47699.4,40.4725 z M47773,33.0038 C47773,33.0038,47730.9,33.0038,47730.9,33.0038 C47730.9,33.0038,47730.9,7.86156,47730.9,7.86156 C47730.9,2.13417,47732,-3.42573,47736.4,-7.55956 C47740.8,-11.6951,47745.4,-13.4553,47751.7,-13.4553 C47751.7,-13.4553,47752,-13.4553,47752,-13.4553 C47758.3,-13.4553,47763.4,-11.6951,47767.5,-7.55956 C47772.2,-3.42318,47772.7,2.13417,47773,7.86156 C47773,7.86156,47773,33.0038,47773,33.0038 z"/> </defs> <use xlink:href="#3" style="fill:#001939;fill-opacity:1;fill-rule:evenodd;opacity:1;stroke:none;"/> </g> </defs> <use xlink:href="#2"/> </g> </svg>