<svg xmlns="http://www.w3.org/2000/svg" xmlns:xlink="http://www.w3.org/1999/xlink" width="150" zoomAndPan="magnify" viewBox="0 0 112.5 112.499997" height="150" preserveAspectRatio="xMidYMid meet" version="1.0"><defs><g/><clipPath id="1e320dc4c9"><path d="M 32.195312 11.25 L 80.195312 11.25 L 80.195312 59.25 L 32.195312 59.25 Z M 32.195312 11.25 " clip-rule="nonzero"/></clipPath></defs><g clip-path="url(#1e320dc4c9)"><path fill="#ffffff" d="M 56.195312 11.25 C 42.949219 11.25 32.195312 22.003906 32.195312 35.25 C 32.195312 48.496094 42.949219 59.25 56.195312 59.25 C 69.441406 59.25 80.195312 48.496094 80.195312 35.25 C 80.195312 22.003906 69.441406 11.25 56.195312 11.25 Z M 56.195312 14.449219 C 67.675781 14.449219 76.996094 23.769531 76.996094 35.25 C 76.996094 46.730469 67.675781 56.050781 56.195312 56.050781 C 44.71875 56.050781 35.398438 46.730469 35.398438 35.25 C 35.398438 23.769531 44.71875 14.449219 56.195312 14.449219 Z M 59.40625 30.789062 C 56.515625 27.902344 51.101562 28.308594 47.355469 32.054688 L 43.734375 35.675781 C 39.988281 39.421875 39.582031 44.835938 42.46875 47.726562 L 45.261719 50.515625 C 48.152344 53.40625 53.5625 53 57.308594 49.253906 C 58.496094 48.066406 59.746094 46.816406 60.933594 45.628906 C 61.558594 45.007812 61.558594 43.992188 60.933594 43.367188 C 60.308594 42.746094 59.292969 42.746094 58.667969 43.367188 L 55.046875 46.988281 C 52.6875 49.347656 49.34375 50.074219 47.523438 48.253906 C 47.523438 48.253906 44.730469 45.460938 44.730469 45.460938 C 42.914062 43.644531 43.636719 40.296875 45.996094 37.941406 C 45.996094 37.941406 49.617188 34.316406 49.617188 34.316406 C 51.976562 31.957031 55.324219 31.234375 57.140625 33.054688 C 57.765625 33.675781 58.78125 33.675781 59.40625 33.054688 C 60.027344 32.425781 60.027344 31.414062 59.40625 30.789062 Z M 56.460938 39.316406 C 59.398438 42.253906 64.480469 42.082031 67.800781 38.761719 L 70.957031 35.605469 C 74.28125 32.285156 74.453125 27.203125 71.515625 24.265625 L 68.722656 21.472656 C 65.785156 18.535156 60.703125 18.707031 57.382812 22.027344 C 56.347656 23.0625 55.257812 24.152344 54.226562 25.1875 C 53.601562 25.808594 53.601562 26.824219 54.226562 27.449219 C 54.851562 28.074219 55.863281 28.074219 56.488281 27.449219 L 59.644531 24.292969 C 61.644531 22.292969 64.691406 21.96875 66.460938 23.734375 C 66.460938 23.734375 69.25 26.527344 69.25 26.527344 C 71.019531 28.296875 70.695312 31.34375 68.695312 33.34375 C 68.695312 33.34375 65.539062 36.5 65.539062 36.5 C 63.539062 38.5 60.492188 38.824219 58.726562 37.054688 C 58.097656 36.429688 57.085938 36.429688 56.460938 37.054688 C 55.835938 37.679688 55.835938 38.691406 56.460938 39.316406 Z M 56.460938 39.316406 " fill-opacity="1" fill-rule="evenodd"/></g></svg>