<svg xmlns="http://www.w3.org/2000/svg" xmlns:xlink="http://www.w3.org/1999/xlink" width="150" zoomAndPan="magnify" viewBox="0 0 112.5 112.499997" height="150" preserveAspectRatio="xMidYMid meet" version="1.0"><defs><g/><clipPath id="0a7951bfeb"><path d="M 29.898438 7.503906 L 82.398438 7.503906 L 82.398438 60.003906 L 29.898438 60.003906 Z M 29.898438 7.503906 " clip-rule="nonzero"/></clipPath></defs><g clip-path="url(#0a7951bfeb)"><path fill="#ffffff" d="M 55.054688 7.503906 C 41.164062 7.503906 29.898438 18.765625 29.898438 32.660156 C 29.898438 46.554688 41.164062 57.816406 55.054688 57.816406 C 57.136719 57.816406 59.152344 57.546875 61.085938 57.066406 C 60.609375 56.457031 60.1875 55.804688 59.824219 55.113281 C 58.285156 55.445312 56.691406 55.628906 55.054688 55.628906 C 44.675781 55.628906 35.890625 48.699219 33.054688 39.222656 L 35.351562 39.222656 C 36.140625 41.574219 37.339844 43.738281 38.859375 45.628906 C 40.28125 44.96875 41.863281 44.386719 43.589844 43.925781 C 43.125 42.453125 42.734375 40.882812 42.460938 39.222656 L 44.710938 39.222656 C 44.976562 40.695312 45.335938 42.101562 45.761719 43.414062 C 48.332031 42.886719 51.109375 42.59375 53.960938 42.527344 L 53.960938 39.222656 L 56.148438 39.222656 L 56.148438 42.527344 C 57.441406 42.558594 58.699219 42.65625 59.945312 42.78125 C 61.339844 40.230469 63.5625 38.199219 66.246094 37.035156 L 66.054688 37.035156 L 63.390625 28.285156 L 65.695312 28.285156 L 67.378906 34.296875 L 69.414062 28.285156 L 72.09375 28.285156 L 74.046875 34.398438 L 75.757812 28.285156 L 78.023438 28.285156 L 75.457031 36.585938 C 76.917969 37.054688 78.273438 37.765625 79.464844 38.6875 C 79.941406 36.757812 80.210938 34.738281 80.210938 32.660156 C 80.210938 18.765625 68.949219 7.503906 55.054688 7.503906 Z M 55.054688 9.691406 C 65.4375 9.691406 74.222656 16.621094 77.054688 26.097656 L 74.761719 26.097656 C 73.96875 23.742188 72.773438 21.582031 71.253906 19.6875 C 69.820312 20.355469 68.234375 20.933594 66.488281 21.398438 C 66.964844 22.882812 67.355469 24.453125 67.632812 26.097656 L 65.421875 26.097656 C 65.160156 24.621094 64.800781 23.222656 64.375 21.898438 C 61.800781 22.425781 59.011719 22.726562 56.148438 22.789062 L 56.148438 26.097656 L 53.960938 26.097656 L 53.960938 22.789062 C 51.105469 22.726562 48.3125 22.421875 45.742188 21.890625 C 45.3125 23.222656 44.953125 24.621094 44.691406 26.097656 L 42.476562 26.097656 C 42.761719 24.453125 43.148438 22.882812 43.625 21.398438 C 41.882812 20.929688 40.285156 20.355469 38.855469 19.6875 C 37.339844 21.585938 36.140625 23.742188 35.351562 26.097656 L 33.054688 26.097656 C 35.890625 16.621094 44.675781 9.691406 55.054688 9.691406 Z M 53.960938 11.988281 C 52.605469 12.253906 51.289062 13.003906 50.042969 14.25 C 48.640625 15.648438 47.453125 17.570312 46.507812 19.824219 C 48.84375 20.28125 51.367188 20.542969 53.960938 20.601562 Z M 56.148438 11.988281 L 56.148438 20.601562 C 58.746094 20.542969 61.269531 20.28125 63.605469 19.820312 C 62.652344 17.542969 61.449219 15.609375 60.023438 14.203125 C 58.792969 12.988281 57.492188 12.253906 56.148438 11.988281 Z M 48.171875 13.0625 C 45.214844 14.105469 42.5625 15.804688 40.390625 17.980469 C 41.601562 18.5 42.925781 18.960938 44.363281 19.332031 C 45.371094 16.84375 46.652344 14.6875 48.171875 13.0625 Z M 61.929688 13.0625 C 63.457031 14.6875 64.738281 16.84375 65.75 19.332031 C 67.1875 18.960938 68.515625 18.503906 69.722656 17.980469 C 67.550781 15.804688 64.894531 14.105469 61.929688 13.0625 Z M 32.085938 28.285156 L 34.386719 28.285156 L 36.0625 34.296875 L 38.085938 28.285156 L 40.757812 28.285156 L 42.699219 34.398438 L 44.410156 28.285156 L 46.664062 28.285156 L 43.96875 37.035156 L 41.589844 37.035156 L 39.375 30.492188 L 37.171875 37.035156 L 34.742188 37.035156 Z M 47.765625 28.285156 L 50.0625 28.285156 L 51.738281 34.296875 L 53.769531 28.285156 L 56.4375 28.285156 L 58.382812 34.398438 L 60.085938 28.285156 L 62.34375 28.285156 L 59.648438 37.035156 L 57.269531 37.035156 L 55.054688 30.492188 L 52.851562 37.035156 L 50.421875 37.035156 Z M 70.710938 30.492188 L 68.769531 36.21875 C 69.636719 36.039062 70.539062 35.941406 71.460938 35.941406 C 71.839844 35.941406 72.210938 35.964844 72.578125 35.996094 Z M 71.460938 38.128906 C 65.445312 38.128906 60.523438 43.050781 60.523438 49.066406 C 60.523438 55.082031 65.445312 60.003906 71.460938 60.003906 C 77.476562 60.003906 82.398438 55.082031 82.398438 49.066406 C 82.398438 43.050781 77.476562 38.128906 71.460938 38.128906 Z M 71.460938 40.316406 C 76.273438 40.316406 80.210938 44.253906 80.210938 49.066406 C 80.210938 53.875 76.273438 57.816406 71.460938 57.816406 C 66.652344 57.816406 62.710938 53.875 62.710938 49.066406 C 62.710938 44.253906 66.652344 40.316406 71.460938 40.316406 Z M 71.460938 43.597656 C 69.058594 43.597656 68.179688 45.566406 68.179688 46.878906 L 70.367188 46.878906 C 70.367188 46.332031 70.585938 45.785156 71.460938 45.785156 C 72.007812 45.785156 72.554688 46 72.554688 46.878906 C 72.554688 46.988281 72.226562 47.425781 72.007812 47.640625 C 71.351562 48.40625 70.367188 49.613281 70.367188 51.253906 L 72.554688 51.253906 C 72.554688 50.375 73.101562 49.722656 73.648438 49.066406 C 74.195312 48.40625 74.742188 47.753906 74.742188 46.878906 C 74.742188 44.472656 72.773438 43.597656 71.460938 43.597656 Z M 53.960938 44.714844 C 51.378906 44.777344 48.871094 45.035156 46.546875 45.492188 C 48.347656 49.769531 50.996094 52.730469 53.960938 53.324219 Z M 56.148438 44.714844 L 56.148438 53.324219 C 57.042969 53.144531 57.902344 52.734375 58.71875 52.152344 C 58.476562 51.160156 58.335938 50.128906 58.335938 49.066406 C 58.335938 47.601562 58.589844 46.199219 59.035156 44.882812 C 58.085938 44.800781 57.125 44.738281 56.148438 44.714844 Z M 44.328125 45.988281 C 42.90625 46.363281 41.585938 46.8125 40.382812 47.335938 C 42.546875 49.492188 45.175781 51.183594 48.109375 52.230469 C 46.613281 50.625 45.335938 48.492188 44.328125 45.988281 Z M 70.367188 52.347656 L 70.367188 54.535156 L 72.554688 54.535156 L 72.554688 52.347656 Z M 70.367188 52.347656 " fill-opacity="1" fill-rule="nonzero"/></g></svg>